<svg width="24" height="24" viewBox="0 0 24 24" fill="none" xmlns="http://www.w3.org/2000/svg">
<path fill-rule="evenodd" clip-rule="evenodd" d="M9.86865 4.85602C10.4292 4.31101 11.1954 4 12 4C12.8046 4 13.5708 4.31101 14.1313 4.85602L14.8483 5.5531L16.2425 4.11911L15.5255 3.42203C14.5858 2.50843 13.3171 2 12 2C10.6829 2 9.4142 2.50843 8.47449 3.42203C7.53383 4.33657 7 5.58304 7 6.88889V9H6H4V11V20V22H6H18H20V20V11V9H18H9V6.88889C9 6.13194 9.30902 5.40011 9.86865 4.85602ZM7 11H6V20H18V11H9H7Z" fill="#888C9F"/>
</svg>
