<svg width="24" height="24" viewBox="0 0 24 24" fill="none" xmlns="http://www.w3.org/2000/svg">
<path d="M10.5 16.9998H4V14.9998H10.5C11.1387 15 11.7653 15.175 12.3116 15.5059C12.858 15.8367 13.3035 16.3108 13.5997 16.8767C13.8959 17.4426 14.0316 18.0788 13.992 18.7163C13.9525 19.3539 13.7393 19.9684 13.3755 20.4934C13.0116 21.0184 12.5111 21.4338 11.928 21.6947C11.3449 21.9555 10.7016 22.0518 10.0677 21.9731C9.43383 21.8945 8.83356 21.6438 8.33194 21.2484C7.83032 20.853 7.44647 20.3278 7.222 19.7298L9.095 19.0268C9.19118 19.2831 9.35566 19.5082 9.57063 19.6777C9.78559 19.8472 10.0428 19.9546 10.3145 19.9883C10.5862 20.0221 10.8619 19.9808 11.1118 19.8691C11.3617 19.7573 11.5762 19.5793 11.7322 19.3543C11.8881 19.1293 11.9795 18.8659 11.9965 18.5927C12.0135 18.3195 11.9553 18.0468 11.8284 17.8043C11.7015 17.5617 11.5106 17.3585 11.2764 17.2167C11.0423 17.0749 10.7738 16.9999 10.5 16.9998ZM5 10.9998H18.5C19.1387 11 19.7653 11.175 20.3116 11.5059C20.858 11.8367 21.3035 12.3108 21.5997 12.8767C21.8959 13.4426 22.0316 14.0788 21.992 14.7163C21.9525 15.3539 21.7393 15.9684 21.3755 16.4934C21.0116 17.0184 20.5111 17.4338 19.928 17.6947C19.3449 17.9555 18.7016 18.0518 18.0677 17.9731C17.4338 17.8945 16.8336 17.6438 16.3319 17.2484C15.8303 16.853 15.4465 16.3278 15.222 15.7298L17.095 15.0268C17.1912 15.2831 17.3557 15.5082 17.5706 15.6777C17.7856 15.8472 18.0428 15.9546 18.3145 15.9883C18.5862 16.0221 18.8619 15.9808 19.1118 15.8691C19.3617 15.7573 19.5762 15.5793 19.7322 15.3543C19.8881 15.1293 19.9795 14.8659 19.9965 14.5927C20.0135 14.3195 19.9553 14.0468 19.8284 13.8043C19.7015 13.5617 19.5106 13.3585 19.2764 13.2167C19.0423 13.0749 18.7738 12.9999 18.5 12.9998H5C4.20435 12.9998 3.44129 12.6837 2.87868 12.1211C2.31607 11.5585 2 10.7954 2 9.99978C2 9.20413 2.31607 8.44107 2.87868 7.87846C3.44129 7.31585 4.20435 6.99978 5 6.99978H13.5C13.7738 6.99967 14.0423 6.92464 14.2764 6.78283C14.5106 6.64102 14.7015 6.43784 14.8284 6.19529C14.9553 5.95274 15.0135 5.68009 14.9965 5.40686C14.9795 5.13364 14.8881 4.87026 14.7322 4.64527C14.5762 4.42028 14.3617 4.24226 14.1118 4.13049C13.8619 4.01873 13.5862 3.97748 13.3145 4.01122C13.0428 4.04496 12.7856 4.15239 12.5706 4.32189C12.3557 4.49139 12.1912 4.71648 12.095 4.97278L10.222 4.27078C10.5105 3.50359 11.059 2.86192 11.7719 2.45759C12.4849 2.05326 13.3171 1.9119 14.1236 2.05813C14.9301 2.20436 15.6597 2.62893 16.1853 3.25784C16.711 3.88675 16.9993 4.68015 17 5.49978C17 6.42804 16.6313 7.31828 15.9749 7.97466C15.3185 8.63103 14.4283 8.99978 13.5 8.99978H5C4.73478 8.99978 4.48043 9.10514 4.29289 9.29268C4.10536 9.48021 4 9.73457 4 9.99978C4 10.265 4.10536 10.5194 4.29289 10.7069C4.48043 10.8944 4.73478 10.9998 5 10.9998Z" fill="#888C9F"/>
</svg>
