<svg width="24" height="24" viewBox="0 0 24 24" fill="none" xmlns="http://www.w3.org/2000/svg">
<path fill-rule="evenodd" clip-rule="evenodd" d="M9.86865 4.85602C10.4292 4.31101 11.1954 4 12 4C12.8046 4 13.5708 4.31101 14.1313 4.85602C14.691 5.40011 15 6.13194 15 6.88889V9H9V6.88889C9 6.13194 9.30902 5.40011 9.86865 4.85602ZM7 9V6.88889C7 5.58304 7.53383 4.33657 8.47449 3.42203C9.4142 2.50843 10.6829 2 12 2C13.3171 2 14.5858 2.50843 15.5255 3.42203C16.4662 4.33657 17 5.58304 17 6.88889V9H18H20V11V20V22H18H6H4V20V11V9H6H7ZM16 11H8H6V20H18V11H16Z" fill="#888C9F"/>
</svg>
