<svg width="17" height="16" viewBox="0 0 17 16" fill="none" xmlns="http://www.w3.org/2000/svg">
<path fill-rule="evenodd" clip-rule="evenodd" d="M6.60091 3.23727C6.97463 2.87393 7.48541 2.66659 8.02181 2.66659C8.55821 2.66659 9.06899 2.87393 9.44271 3.23727C9.81579 3.59999 10.0218 4.08788 10.0218 4.59251V5.99992H6.02181V4.59251C6.02181 4.08788 6.22783 3.59999 6.60091 3.23727ZM4.68848 5.99992V4.59251C4.68848 3.72195 5.04436 2.89096 5.67147 2.28127C6.29794 1.67221 7.14372 1.33325 8.02181 1.33325C8.8999 1.33325 9.74568 1.67221 10.3721 2.28127C10.9993 2.89096 11.3551 3.72195 11.3551 4.59251V5.99992H12.0218H13.3551V7.33325V13.3333V14.6666H12.0218H4.02181H2.68848V13.3333V7.33325V5.99992H4.02181H4.68848ZM10.6885 7.33325H5.35514H4.02181V13.3333H12.0218V7.33325H10.6885Z" fill="#A7ABC3"/>
</svg>
