<svg width="320" height="52" viewBox="0 0 320 52" fill="none" xmlns="http://www.w3.org/2000/svg">
<g clip-path="url(#clip0)">
<path d="M127.5 41.3987C127.642 41.4225 127.736 41.4225 127.878 41.4702C126.982 41.2319 125.991 41.3749 125.072 41.208C124.176 41.0173 123.139 40.6599 122.361 40.1593C121.182 39.3967 120.569 37.347 120.121 36.1077C119.602 34.6538 118.871 33.3192 117.976 32.0798C117.716 31.7223 117.575 31.3172 117.15 31.484C116.891 31.5793 116.561 32.1275 116.419 32.3658C115.83 33.2238 115.382 34.1533 114.816 35.0113C113.873 36.5128 112.577 37.8237 111.728 39.3728C111.374 40.0163 111.162 40.4215 110.596 40.9459C110.054 41.4464 109.535 41.8277 109.04 42.3759C107.413 44.2825 104.042 44.497 101.897 43.5199C99.9633 42.638 98.926 39.4682 98.3366 37.6807C98.0772 36.918 97.865 36.203 97.4878 35.4642C96.8277 34.1057 96.2383 32.6518 95.9318 31.1503C95.6253 29.6726 95.366 28.0996 95.366 26.4551C95.366 25.0013 94.9416 23.3091 94.6587 21.903C94.3758 20.5206 94.3993 19.1383 94.2107 17.7321C94.0221 16.4689 93.5506 15.1343 93.692 13.8234C93.8335 12.5364 94.2579 11.4163 93.9042 10.0816C93.6449 9.10441 92.8197 7.65057 92.0889 6.95941C92.749 6.7449 94.7766 6.57807 95.2952 7.03091C95.9789 7.60291 95.8846 9.29508 96.8513 9.43808C97.7 9.58108 97.4171 8.67541 97.4407 8.07958C97.865 8.50858 98.1008 9.08058 98.5487 9.48575C99.1146 9.17591 99.1146 7.98424 99.3975 7.41224C99.4446 7.34074 100.506 8.65158 100.623 8.84224C101.048 9.60491 101.496 10.5583 101.708 11.4163C102.038 12.6556 102.038 13.9426 102.038 15.2773C102.038 16.7788 101.732 18.2326 101.779 19.6864C101.826 20.902 102.038 22.2366 102.297 23.4283C102.604 24.8821 103.193 26.3598 103.971 27.5991C104.278 27.194 104.702 27.051 105.032 26.622C105.292 26.2645 105.268 25.8831 105.457 25.5018C105.857 24.6676 106.753 24.1433 107.649 24.2148C107.602 24.6915 107.154 25.1443 106.942 25.5495C106.659 26.05 106.541 26.5981 106.258 27.0986C105.739 28.0043 104.961 28.6001 104.631 29.625C104.466 30.197 104.16 30.912 104.183 31.5078C104.16 31.4363 104.136 31.3887 104.113 31.3172C104.254 31.055 105.056 30.6498 105.386 30.34C105.81 29.9348 106.117 29.5058 106.494 29.0291C107.201 28.1473 107.885 27.3608 108.521 26.4551C109.889 24.5485 111.28 22.6895 112.506 20.7351C113.119 19.7341 114.015 18.1373 113.708 16.9694C112.718 16.8264 112.011 17.5414 111.516 18.3041C111.233 18.7331 111.115 19.2574 110.785 19.6626C110.478 20.0439 109.936 20.2823 109.771 20.8066C110.125 19.7818 110.808 18.8523 111.327 17.8989C111.964 16.7549 112.341 15.5871 113.826 15.8016C114.698 15.9208 115.594 15.9923 116.49 15.8731C117.221 15.7778 117.999 15.4203 118.706 15.4203C119.39 15.4203 119.72 15.7063 120.074 16.3021C120.451 16.9456 120.852 17.6368 121.229 18.3041C121.583 18.9476 121.795 20.4253 122.526 20.7113C122.809 20.8305 123.139 20.616 123.398 20.8066C123.563 20.9496 123.728 21.5931 123.799 21.8076C123.681 21.8076 124.035 21.6646 123.917 21.617C124.129 20.7828 124.483 20.2585 124.931 19.5196C125.143 19.1859 125.308 18.8284 125.52 18.4709C125.826 17.9466 125.944 17.8989 126.439 17.7083C126.934 17.5176 127.052 17.5653 127.288 16.9933C127.453 16.6119 127.571 16.2068 127.712 15.8254C128.043 14.9674 128.42 14.1571 128.703 13.2991C128.986 12.4173 129.434 11.5593 129.787 10.6774C130.424 10.7251 131.532 10.8919 132.074 11.1779C130.094 12.1789 129.056 14.3478 128.043 16.2068C127.547 17.1124 126.958 17.9943 126.463 18.8761C125.897 19.8533 125.661 20.9973 125.143 22.0221C124.789 22.7133 124.695 23.0946 124.671 23.905C124.648 24.5485 124.789 25.0251 124.86 25.621C124.813 25.5256 124.742 25.4303 124.695 25.3588C126.086 24.9536 126.982 23.1661 127.453 22.0221C128.066 20.5683 128.632 19.0429 129.41 17.6844C130.518 15.7778 132.711 9.86708 135.728 12.2266C136.436 12.7748 136.884 13.5136 137.308 14.2763C137.662 14.8959 138.11 16.4213 137.85 17.0648C137.638 17.5653 137.897 18.7808 137.78 19.4004C137.638 20.0916 137.379 20.7828 137.072 21.474C136.506 22.761 136.176 24.1671 135.658 25.5018C134.314 28.9815 132.593 32.2467 131.131 35.6072C130.612 36.7988 129.929 37.8713 129.339 39.0153C128.986 39.8018 127.76 40.6599 127.5 41.3987Z" fill="white"/>
<path d="M107.861 23.9765C107.885 23.619 108.074 23.0708 108.191 22.761C108.262 22.5703 108.262 22.5703 108.474 22.6656C108.592 22.7133 108.757 22.8325 108.852 22.9278C108.451 23.2138 108.121 23.6428 107.861 23.9765Z" fill="white"/>
<path d="M171.847 20.5444C171.234 19.7579 170.078 18.8761 169.206 18.4471C168.263 17.9942 167.438 17.8274 166.966 16.7549C166.566 15.8492 166.471 14.7291 166.094 13.7996C165.34 11.8452 164.514 8.55621 162.487 7.60287C161.449 7.10237 160.695 7.45987 159.658 7.4837C158.691 7.50754 158.29 6.57803 157.465 6.45887C156.97 6.38737 156.451 6.86403 156.121 7.17387C155.343 7.86504 154.4 8.53237 153.693 9.27121C152.726 10.2722 152.019 11.6307 151.194 12.7509C149.779 14.6337 148.459 16.7311 146.762 18.3517C146.361 18.7331 145.889 19.0191 145.536 19.4481C145.017 20.0916 144.875 20.9019 144.427 21.6407C143.862 22.5703 143.626 23.4998 143.131 24.4293C142.541 25.5494 141.528 26.4313 140.82 27.5038C140.349 28.2426 139.453 29.2198 139.146 29.6726C138.533 29.5296 137.755 29.6011 137.52 30.0778C137.284 30.6021 137.213 31.3886 137.001 31.9844C136.765 32.6041 136.435 33.343 136.6 33.9865C136.789 34.7968 137.449 34.5823 137.92 35.059C138.439 35.5833 138.368 36.632 138.085 37.204C138.722 37.7521 139.311 38.3241 139.948 38.8246C140.467 39.206 140.537 39.206 140.302 39.8495C140.16 40.2308 139.972 40.5883 139.83 40.9458C140.915 41.4701 141.433 42.0898 142.211 42.924C143.437 42.0421 143.98 40.1593 144.805 38.9438C145.842 37.3708 146.762 35.7501 147.799 34.1771C148.294 33.4383 148.813 32.7233 149.261 31.9844C149.496 31.6031 149.685 30.7928 150.086 30.6498C150.557 30.4829 151.406 30.9834 151.83 31.1026C152.797 31.3886 153.622 31.1979 154.565 30.8404C157.041 29.9109 159.516 29.9586 162.062 29.9348C162.298 30.3876 162.228 30.9596 162.345 31.4601C162.463 31.9606 162.699 32.3419 162.982 32.7709C163.619 33.772 164.562 34.058 165.575 34.5823C166.731 35.1781 167.179 34.7491 168.051 33.7243C168.9 32.6994 169.3 31.4601 169.465 30.1969C169.63 28.9338 169.253 27.7183 169.277 26.4313C169.3 24.9774 169.913 24.5008 171.021 23.5713C172.13 22.4988 172.813 21.8076 171.847 20.5444ZM144.522 25.4541C144.168 26.2406 143.437 26.9318 142.848 27.5514C142.235 28.1949 141.575 28.5286 141.811 29.5058C141.528 29.5534 141.268 29.5534 140.985 29.6011C141.15 29.5058 141.08 29.1483 141.174 28.9099C141.292 28.6239 141.433 28.5524 141.645 28.3856C142.329 27.8136 142.683 27.0748 143.107 26.2883C143.602 25.4303 143.649 24.0241 144.923 24.1433C144.758 24.5484 144.71 25.0251 144.522 25.4541ZM147.398 21.4501C147.115 22.4511 145.488 22.8324 145.205 23.7381C145.158 23.0946 145.3 22.5702 145.63 21.9744C145.818 21.6646 146.078 20.8304 146.384 20.7112C146.879 20.4729 147.54 20.9972 147.398 21.4501ZM157.253 9.10438C156.404 9.65254 155.909 10.2722 155.178 10.9634C153.905 12.1789 152.679 13.7042 151.736 15.1819C150.793 16.7072 149.944 17.9942 148.341 18.8999C148.341 18.9237 148.341 18.9476 148.341 18.9714C148.294 18.9714 148.247 18.9714 148.247 18.9714C148.294 18.9476 148.318 18.9237 148.341 18.8999C148.365 18.6854 148.483 18.5424 148.577 18.3279C148.836 17.7797 149.213 17.4461 149.496 16.8979C149.803 16.3021 150.086 15.5871 150.51 15.0866C151.241 14.2286 151.901 13.1084 152.585 12.2027C153.339 11.2017 154.164 10.2484 155.131 9.43804C155.579 9.05671 156.027 8.67537 156.475 8.29404C156.758 8.0557 157.182 7.4837 157.559 7.50754C157.913 7.53137 158.125 8.03187 158.196 8.34171C158.337 8.91371 157.654 8.86604 157.253 9.10438Z" fill="white"/>
<path d="M174.936 19.6148C175.289 19.9246 175.124 20.2821 175.124 20.7111C175.148 22.5225 177.246 24.0002 178.401 25.2157C179.109 25.9307 179.934 26.5503 180.688 27.2177C181.325 27.7897 182.008 27.9803 181.914 28.9813C181.843 29.8155 181.419 30.745 181.065 31.4839C180.617 32.4372 180.193 33.4144 179.698 34.3677C178.613 36.4889 177.883 39.2059 176.256 40.9696C175.454 41.8276 174.676 42.5426 174.04 43.5436C173.38 44.5207 173.167 45.8792 173.214 47.0471C173.262 48.0004 173.78 48.6201 174.417 49.2874C174.912 49.8117 175.501 50.6459 176.114 51.0273C177.057 51.5993 178.59 51.0273 179.627 51.0273C180.193 51.0273 180.806 51.1226 181.207 50.7651C181.419 50.5744 181.584 50.2646 181.749 50.0262C182.645 48.7631 183.612 47.5476 184.413 46.2367C185.168 45.0212 185.851 43.7581 186.606 42.5187C186.912 41.9944 187.36 41.5177 187.737 41.0172C188.02 40.6359 188.256 39.7064 188.61 39.4204C189.034 39.0867 189.341 38.3479 189.576 37.895C189.93 37.2277 190.236 36.5604 190.661 35.9407C191.698 34.3915 192.641 32.8185 193.631 31.2694C194.433 30.0062 195.14 28.7668 196.013 27.5275C196.814 26.3835 197.592 25.168 198.394 24.0478C199.172 22.9753 199.95 21.9505 200.751 20.878C201.718 19.591 202.449 18.2563 203.274 16.874C204.005 15.6585 204.524 14.2761 205.325 13.1083C206.08 12.0358 206.74 10.8679 207.376 9.70011C208.202 8.22244 208.602 6.45876 209.31 4.90959C208.815 4.93342 208.319 5.02876 207.848 4.90959C208.202 4.14692 208.343 3.16975 208.249 2.35942C207.518 2.33558 207.046 2.69308 206.315 2.21642C205.632 1.76358 205.915 1.31075 206.363 0.810244C206.009 0.524243 205.585 0.0714079 205.16 -0.0239258C205.019 1.23925 203.51 2.24025 202.473 2.76458C202.048 2.97908 201.577 3.14592 201.152 3.36042C200.563 3.67025 200.209 4.21842 199.761 4.71892C199.219 5.38626 199.101 6.17276 198.441 6.74476C198.04 7.07843 197.639 7.29293 197.286 7.72193C196.861 8.2701 196.39 8.77061 195.942 9.27111C194.622 10.8203 193.561 12.5125 192.24 14.0378C191.415 14.9911 190.755 15.9921 190.119 17.0885C189.718 17.8035 189.411 18.5661 188.987 19.2573C188.515 20.0438 187.902 20.735 187.36 21.4738C186.04 21.0686 184.696 20.6396 183.517 19.7816C181.537 18.3755 180.193 16.0875 178.661 14.2285C178.378 13.8948 178.118 13.4896 177.718 13.2751C177.27 13.0368 176.657 12.9415 176.209 12.8223C175.69 12.6793 175.242 12.6078 174.723 12.3456C174.323 12.1549 173.686 11.6783 173.238 11.7498C173.191 12.3456 173.521 12.7746 173.568 13.299C173.403 12.87 172.719 12.5363 172.413 12.2026C171.894 11.6544 171.376 11.7021 170.621 11.7498C170.81 12.8461 171.423 13.9901 172.059 14.9196C172.696 15.873 173.073 16.9455 173.733 17.8988C174.087 18.4231 174.464 18.9713 174.794 19.4718C174.818 19.4718 174.983 19.6625 174.936 19.6148Z" fill="white"/>
<path d="M311.654 16.4929C311.748 16.5406 311.842 16.5882 311.96 16.6121C311.536 16.6359 310.31 16.2784 310.546 15.6826C310.711 15.2059 312.125 15.0391 312.573 14.8961C313.564 14.5862 313.894 14.0142 314.672 13.3707C315.237 12.9179 315.968 12.8225 316.558 12.4412C317.218 12.036 317.359 11.4402 317.784 10.8205C318.255 10.1532 318.75 9.7957 319.458 9.41437C320.141 9.03303 320.259 8.81853 319.481 8.5802C318.75 8.34186 318.868 8.2227 318.632 7.53153C318.279 6.45902 317.265 5.29119 319.033 4.95752C318.562 4.95752 318.09 4.95752 317.619 5.02902C315.214 5.29119 312.974 6.24452 310.593 6.69736C307.811 7.22169 305.076 7.96053 302.318 8.60403C301.257 8.8662 300.125 9.10453 299.017 9.27137C298.027 9.41437 296.989 9.41437 295.999 9.5812C294.184 9.84337 292.274 9.96253 290.459 10.32C287.276 10.9635 283.881 11.3925 280.793 12.4174C279.472 12.8464 278.152 13.4184 276.808 13.6329C275.535 13.8474 274.262 14.0619 273.012 14.2525C271.645 14.467 270.23 14.3002 268.934 14.753C268.014 15.0629 266.529 15.7302 266.411 16.8504C266.505 16.1592 269.17 16.8266 267.849 17.8276C267.378 18.1851 267.118 18.1851 267.614 18.8286C268.061 19.4244 268.226 19.3529 268.792 18.9716C269.287 18.6617 269.57 18.6141 270.207 18.6141C270.608 18.6141 271.621 18.6141 271.433 19.2337C271.15 20.1156 269.122 19.7819 268.91 20.9497C268.769 21.6886 269.735 21.5932 270.23 21.7362C270.796 21.9031 271.339 22.1891 271.81 22.5227C272.329 22.9041 272.399 23.1662 273.107 23.0471C273.838 22.9279 274.875 22.7849 275.488 22.3797C275.959 22.0699 276.219 21.4741 276.808 22.0461C277.209 22.4512 277.256 23.1424 277.728 23.5237C278.553 24.1672 279.826 23.5237 280.769 23.3331C281.453 23.1901 282.136 23.0471 282.797 22.7849C283.127 22.6419 283.339 22.4512 283.692 22.5466C284.447 22.7611 284.329 23.3807 284.164 23.8812C283.928 24.5962 283.716 25.2874 283.48 26.0024C283.292 26.6221 282.844 27.1226 282.655 27.7661C282.514 28.2904 282.443 28.8386 282.254 29.3391C281.83 30.6261 281.076 31.8654 280.934 33.2239C280.887 33.5814 280.887 34.0819 280.958 34.4394C279.307 34.2488 279.873 36.1793 279.85 37.1564C280.25 36.7274 280.604 36.2508 280.863 35.7026C281.382 36.8228 281.005 38.5865 281.052 39.8258C281.83 39.8735 282.938 39.4445 283.669 39.1585C283.975 39.0393 285.249 38.372 284.801 39.3253C285.414 38.9678 285.414 38.3958 285.555 37.7523C285.72 36.8466 285.956 35.9409 286.239 35.0829C286.357 34.7254 286.687 33.2239 287.323 33.8436C287.771 34.2964 286.97 35.4404 286.922 35.9648C287.583 36.1078 287.842 35.3689 288.054 34.8923C288.573 33.7244 289.186 32.5804 289.563 31.3411C289.987 30.0303 290.365 28.7194 290.812 27.4324C291.143 26.4791 291.496 25.3589 291.944 24.4771C292.345 23.7144 293.076 22.4751 293.76 21.9031C294.655 21.1642 296.235 20.8067 297.296 20.4731C299.842 19.6627 302.648 19.1384 305.265 18.6617C306.703 18.3996 308.047 18.1612 309.461 17.8037C310.145 17.6369 311.277 17.7799 311.701 17.0649C311.512 17.0649 311.842 16.3976 311.654 16.4929Z" fill="white"/>
<path d="M264.502 15.1578C264.054 13.561 263.135 11.9642 261.555 11.1777C261.602 11.2015 261.673 11.2015 261.72 11.2253C260.918 10.5103 259.292 11.3445 258.301 10.8678C257.335 10.415 256.84 10.0098 255.779 10.558C255.708 11.273 255.967 11.1538 256.227 11.702C256.392 12.0595 256.227 12.6792 256.132 13.0843C255.944 13.8232 255.661 14.705 255.354 15.3962C255.142 15.8252 254.789 16.1827 254.694 16.6117C254.906 16.8977 255.213 16.7308 255.519 16.6117C255.024 17.565 255.071 18.6852 254.506 19.6862C253.492 21.5214 251.936 23.5472 250.333 24.9534C249.39 25.7875 248.046 26.0974 247.103 26.9315C246.348 27.5989 245.806 28.2424 244.745 28.2185C245.665 27.718 246.16 26.7647 247.056 26.145C248.564 25.0964 249.649 23.4519 250.969 22.1887C251.629 21.5452 252.266 20.8064 252.832 20.0437C253.327 19.3525 253.657 18.3038 254.27 17.7318C253.115 18.28 252.219 19.1142 251.464 20.139C250.356 21.6644 249.107 23.2612 247.692 24.572C247.008 25.2155 246.23 25.573 245.57 26.288C245.193 26.6932 244.344 28.4807 243.708 28.3139C242.859 28.0755 242.741 27.0269 243 26.2642C243.213 25.573 243.684 24.858 243.991 24.2145C244.321 23.4995 244.721 22.8084 245.122 22.141C245.641 21.3307 247.103 19.138 246.702 18.2085C246.796 18.2562 246.914 18.28 247.008 18.2562C246.537 17.9702 246.56 16.5402 246.513 15.992C246.466 14.9433 246.725 14.1568 247.15 13.2512C247.362 12.7983 248.069 11.0347 247.338 11.0585C247.008 11.0823 246.725 11.7973 246.395 11.5352C246.254 11.4398 246.278 10.558 246.254 10.3673C246.16 9.67615 245.971 8.88965 245.476 8.36532C245.311 8.81815 245.193 9.36632 244.769 9.62849C244.344 9.89066 243.802 9.81916 243.354 10.0575C243.071 10.2005 242.953 10.4627 242.694 10.2958C242.505 10.1767 242.505 9.69999 242.505 9.50932C242.458 8.84199 242.576 8.41298 242.859 7.88865C242.482 7.79332 241.633 7.76948 241.421 7.93632C240.148 9.03265 240.101 11.2253 239.134 12.6077C238.922 12.9175 238.639 13.132 238.427 13.4657C238.144 13.8947 238.309 14.2045 237.649 14.0615C236.988 13.9423 236.305 13.0843 235.715 12.6792C234.867 12.1072 234.018 11.3683 233.028 11.1538C231.731 10.8917 230.458 10.6295 229.185 10.1767C226.379 9.17565 223.409 8.67515 220.391 8.81815C218.858 8.88965 217.562 9.17565 216.076 9.62849C215.44 9.81916 214.78 10.0337 214.143 10.2243C213.318 10.4865 212.304 10.5342 211.526 10.8678C210.465 11.3207 209.758 12.5362 209.169 13.4895C208.838 14.0138 208.556 14.5858 208.155 15.0625C207.66 15.6345 207.188 15.9682 207.023 16.7785C206.717 18.2085 207.424 19.4955 206.858 20.9017C206.269 22.3555 205.066 23.428 204.453 24.858C203.982 25.9782 204.477 27.4559 204.43 28.6237C204.335 30.8879 204.383 32.6992 205.491 34.7251C206.08 35.7976 206.669 36.7032 207.4 37.6566C207.872 38.2524 208.178 38.9674 208.721 39.4917C209.451 40.1829 210.489 40.7788 211.361 41.3031C212.328 41.8513 213.365 42.4233 214.402 42.8046C217.208 43.8533 220.202 43.9963 223.031 43.2813C226.898 42.3041 229.515 39.6347 232.391 36.3696C233.146 35.5116 234.537 33.8432 235.739 32.9376C235.763 33.0091 235.786 33.0806 235.763 32.9614C236.871 33.5334 236.611 34.7251 236.894 35.8452C237.554 38.5861 239.488 40.3974 242.34 40.4212C244.792 40.4451 246.985 39.6586 249.295 38.9674C250.191 38.6814 252.219 38.2762 252.219 37.1084C252.313 37.0846 252.525 37.0846 252.62 37.1084C252.714 37.3467 252.785 37.6089 252.879 37.8711C253.115 38.6099 253.162 39.1104 253.845 39.4917C254.388 39.8016 254.93 40.1829 255.472 40.4451C256.627 40.9933 258.207 40.7072 259.056 39.7777C260.022 38.7291 260.164 37.3706 260.423 35.9882C260.848 33.8194 261.319 32.5086 261.555 30.9117C261.791 29.4102 262.309 28.004 262.639 26.5502C262.993 25.001 263.229 23.3565 263.724 21.8312C264.408 19.7815 265.068 17.2313 264.502 15.1578ZM208.65 17.1122C208.414 17.3028 208.768 18.9474 207.848 18.6613C207.848 18.2323 208.013 16.8023 208.65 17.1122C208.65 17.0883 208.673 17.0883 208.65 17.1122L208.744 17.1598C208.697 17.136 208.673 17.1122 208.65 17.1122ZM211.668 12.6077H211.597C211.691 12.2978 211.974 11.845 212.233 11.6305C212.681 11.273 213.011 11.5113 213.554 11.4637C213.436 11.7973 213.247 12.2502 212.941 12.4647C212.54 12.7983 212.186 12.56 211.668 12.6077ZM224.941 28.9097C223.715 29.9584 222.536 31.2692 221.075 31.9842C219.754 32.6277 218.363 32.8422 216.902 32.7707C215.581 32.6992 214.143 32.3417 212.564 31.7221C212.398 31.9842 212.469 31.8412 212.54 31.7221C212.54 31.7221 212.54 31.7221 212.564 31.7221C212.587 31.6982 212.611 31.6506 212.634 31.6029H212.564C212.587 29.9107 213.318 29.0289 214.12 27.5989C214.756 26.4787 216.006 24.8104 216.996 23.9524C218.481 22.713 219.495 21.712 221.31 21.0447C222.843 20.4727 225.46 20.0675 227.063 20.3059C228.454 20.5204 229.586 20.6634 231.118 21.855C229.916 24.8819 227.252 26.9315 224.941 28.9097ZM261.248 11.0347C261.343 11.0823 261.437 11.13 261.531 11.1538C261.461 11.1538 261.201 11.0347 261.248 11.0347Z" fill="white"/>
<path d="M219.849 31.174C220.839 31.3885 222.395 30.03 222.984 29.1958C223.22 28.886 223.385 28.5285 223.574 28.1948C222.607 28.9337 221.523 29.458 220.603 30.2445C220.273 30.5305 220.108 30.745 219.849 31.174Z" fill="white"/>
<path d="M13.3912 43.6626C13.5563 43.8056 13.7449 43.9486 13.9571 44.0201C14.2636 44.1155 14.5936 43.9963 14.9237 43.9486C16.8098 43.6388 18.5073 45.3548 20.4405 45.4025C20.6056 45.4025 20.7942 45.4025 20.9592 45.331C21.3129 45.188 21.8315 44.6875 22.0201 44.3776C23.6705 41.6368 25.1558 39.3965 26.9476 36.7509C29.2816 33.2713 31.6392 29.6009 34.1619 26.2642C35.3643 27.2414 35.3643 28.9098 35.1521 30.4589C34.8456 32.6754 34.6806 35.1303 35.2228 37.2991C35.4822 38.3478 36.6846 40.0638 37.1325 41.0648C38.0048 43.0191 38.3349 44.1393 39.8438 45.6408C40.3624 46.1651 40.9518 46.6895 41.6356 46.9516C42.8144 47.4045 44.1818 47.0708 45.2899 46.4511C46.7044 45.6885 47.3174 44.1393 48.284 42.7331C49.3214 41.2316 49.9344 41.7321 51.8912 37.7519C53.3765 34.7489 54.1781 32.4371 55.8756 29.7439C56.2764 29.9823 56.5357 30.4113 56.5829 30.8641C57.0544 29.6486 56.9837 28.2424 56.4178 27.0746C57.243 25.5492 58.9641 24.6197 60.0486 23.3566C59.9543 23.5711 59.86 23.7856 59.7421 24.0001C59.3649 24.6197 57.9975 26.3357 58.5633 27.1699C58.5161 27.2652 58.7519 27.1937 58.6576 27.2414C58.3039 28.0279 58.3275 28.8859 58.1625 29.6963C58.0918 30.0061 58.1153 30.5781 57.8796 30.8164C57.5967 31.1501 57.1723 30.9356 56.8422 31.1024C57.8324 31.8174 57.7145 33.2236 57.8796 34.2723C58.0446 35.3686 58.0918 36.5126 58.2568 37.6328C58.6104 39.9685 59.8835 42.2565 61.9583 43.5673C64.7874 45.3548 68.6775 44.759 71.766 44.044C73.3456 43.6626 75.1374 43.0906 76.5284 42.2326C78.2966 41.1125 79.8997 39.7778 81.5265 38.4193C82.3281 37.7519 82.6817 36.8224 83.4126 36.0836C84.3792 35.1064 85.3223 34.2484 86.0296 33.1044C86.6897 32.0558 88.0571 31.1501 88.3872 29.9584C88.6937 28.8859 88.9766 27.7896 89.3067 26.7171C89.4245 26.3119 89.566 25.9067 89.5896 25.4777C89.566 25.5969 89.5189 25.6922 89.4717 25.8114C89.4481 25.1679 90.1554 24.1192 90.2969 23.4996C90.4383 22.8799 90.4619 22.2364 90.509 21.5691C90.5798 20.3059 90.3676 19.2334 89.8489 18.1371C89.3774 17.1599 88.7173 16.2304 88.175 15.3009C87.4913 14.1569 86.7133 13.132 85.841 12.1549C85.4637 11.7259 85.1337 11.1777 84.7565 10.7725C84.3321 10.3435 83.7898 10.3912 83.2947 10.1052C82.7053 9.74769 82.3281 9.12802 81.8094 8.74669C81.22 8.29385 80.4184 7.88869 79.7583 7.57885C78.7681 7.10218 77.9901 6.95918 76.9056 6.91152C76.0333 6.86385 75.326 6.53018 74.548 6.17268C73.6992 5.79135 73.0862 5.19551 72.1432 5.19551C71.8838 5.19551 70.9408 5.21934 70.8229 5.57684C70.7286 5.86285 71.318 6.36335 71.3652 6.69702C71.5066 7.57885 70.0449 8.15085 69.4791 8.65135C68.6539 9.39019 67.923 10.3435 67.2158 11.1777C65.7305 12.9175 64.6931 15.277 63.4436 17.2075C63.2314 17.5174 63.0428 17.851 62.8777 18.1609C62.7834 18.1847 62.7127 18.1847 62.642 18.1609C62.5948 17.8749 62.6655 17.5174 62.7598 17.2314C63.3257 15.7299 63.8915 14.2284 64.4573 12.7269C64.198 12.9414 63.9387 13.132 63.6793 13.3465C63.2314 12.0595 63.4436 10.558 64.2451 9.46169C64.4102 9.24719 64.5988 9.00886 64.5988 8.74669C64.5988 8.24619 64.0094 7.93635 63.9151 7.43585C63.7972 6.64935 65.0232 5.91051 64.5516 5.29084C64.3866 5.05251 64.0565 5.00484 63.8679 4.79034C63.585 4.48051 63.7029 3.90851 63.0899 3.78934C62.7363 3.71784 62.3826 3.86084 62.1233 4.12301C59.082 7.26902 56.9837 11.3922 54.8147 15.2294C53.7773 17.0645 53.0464 18.9474 51.6083 20.4489C51.0425 21.0447 50.4295 21.5929 49.9344 22.2364C49.345 22.9991 48.9678 23.9047 48.5434 24.7627C47.3174 27.2891 45.6671 29.6963 43.8989 31.8651C43.8281 31.9604 43.6867 31.8889 43.6867 31.7936C43.8046 29.1243 43.4038 26.9792 43.333 24.5244C43.2859 22.2841 43.5924 19.7101 43.6631 17.2314C43.6867 16.278 43.2623 13.847 43.003 12.9175C42.7436 11.9404 42.2957 11.3922 41.6827 10.6057C40.9283 9.62852 40.2681 8.84202 39.3958 7.96019C39.1129 7.67419 38.4999 7.34052 38.1227 7.29285C37.0853 7.14985 36.5667 8.60369 35.6236 9.03269C35.3643 9.15186 35.0578 9.19952 34.7985 9.27102C34.2326 9.00886 33.6432 8.72285 33.0774 8.46069C32.9359 8.38919 32.7945 8.34152 32.653 8.36535C32.5587 8.38919 32.488 8.46069 32.4173 8.50835C32.2758 8.62752 32.1579 8.72285 32.0165 8.84202C31.8986 8.93736 31.7807 9.03269 31.6864 9.17569C31.4978 9.46169 31.5214 9.84303 31.5685 10.1767C32.0165 9.77152 32.6766 9.50936 33.2424 9.46169C33.5725 9.43786 33.9497 9.46169 34.2326 9.60469C33.9497 9.86686 33.7611 10.2482 33.5253 10.5819C28.928 16.9215 25.7216 22.1172 21.4072 27.8611C19.3796 30.5781 17.3049 33.8433 15.2538 36.5364C14.0985 38.0856 12.8726 39.7063 11.1279 40.5166C11.5995 41.6845 12.401 42.7808 13.3912 43.6626ZM71.8367 7.57885L71.6717 7.62652C71.4359 7.48352 71.4595 8.03169 71.5538 8.27002C71.2709 8.41302 71.0115 8.57985 70.705 8.43685C70.375 7.88869 71.483 7.57885 71.8367 7.57885ZM65.0703 30.1729C65.589 29.1719 66.202 28.1233 66.9093 27.2652C67.9938 25.9306 69.314 24.7627 70.4221 23.4519C70.7758 23.0229 71.153 22.5939 71.4595 22.1411C71.5774 21.9742 71.5774 21.8074 71.6952 21.7121C72.0725 20.8779 72.8976 20.2582 73.4399 19.5432C73.9585 18.8759 74.4536 18.1371 75.1845 17.6842C75.6089 17.422 76.1511 17.136 76.6462 17.2075C76.717 17.8272 76.3869 18.1132 77.2356 17.8272C77.66 17.6842 78.1787 17.4935 78.5795 17.279C78.1787 16.993 77.5421 16.8024 77.3771 16.3019C78.886 16.1112 79.7819 17.3029 80.5599 18.4469C80.89 18.9474 81.1493 19.3049 81.5972 19.7101C81.9037 19.9722 82.2102 20.1629 82.3988 20.5442C83.0825 21.9742 81.4322 23.0229 81.0314 24.2622C80.7249 25.1917 80.5835 26.3357 80.1591 27.1937C79.6404 28.2186 78.273 28.8144 77.495 29.6724C75.8211 31.4599 73.8171 32.7708 71.6245 33.8909C71.318 34.0578 70.4221 34.5821 70.0685 34.4629C69.3848 34.2723 70.1864 33.5334 70.4693 33.2713C71.2237 32.5324 72.0489 31.9128 72.9212 31.3169C73.2984 31.0548 74.1472 30.5781 74.2179 30.1014C73.5813 29.9584 73.1334 30.1968 72.6383 30.6258C72.0489 31.1501 71.4123 31.5553 70.7758 32.0319C69.6205 32.8899 68.7011 33.5811 67.3336 34.0816C66.532 34.3676 64.7638 34.8443 64.0094 34.2723C63.1842 33.6764 64.7402 30.8403 65.0703 30.1729ZM61.1331 19.5671C61.2981 19.2334 61.6753 19.0189 62.0054 18.9951C62.3591 19.1619 62.4534 19.4956 62.3355 19.9722C62.1469 20.7111 61.416 21.0924 60.9209 21.5929C60.8737 21.6406 60.8502 21.6644 60.8266 21.7121C60.8266 21.6644 60.8502 21.6167 60.8502 21.5691C60.9681 20.8779 60.8502 20.1629 61.1331 19.5671Z" fill="white"/>
<path d="M47.2462 21.9267C47.3641 21.6646 48.2129 19.8056 48.4958 19.8294C48.2364 19.8056 47.9771 19.7817 47.7178 19.7817C47.647 20.3537 47.2934 20.8304 47.0341 21.3309C46.6804 21.9982 46.2796 24.1671 47.2462 21.9267Z" fill="white"/>
<path d="M52.1742 12.5841C52.5279 12.3696 52.7401 11.9645 52.7401 11.5593L52.5986 11.4401C52.6693 11.4401 52.6222 11.321 52.5515 11.321C52.3629 11.2971 52.1978 11.4401 52.1507 11.6308C52.0799 11.7976 52.1035 11.9883 52.1271 12.179C52.1271 12.322 52.1507 12.4411 52.1742 12.5841Z" fill="white"/>
<path d="M57.8559 3.7894C58.5396 3.1459 59.6477 2.81223 60.4493 3.2889H60.4729C60.4493 3.31273 60.4257 3.33657 60.4021 3.38423C60.3314 3.59874 60.1664 3.8609 60.3786 3.9324C60.5908 4.0039 61.1802 3.98007 61.3923 3.95624C61.4866 3.9324 61.6045 3.9324 61.6753 3.83707C61.7696 3.7179 61.6753 3.52723 61.5574 3.4319C61.2745 3.16973 60.8737 3.12207 60.52 3.24123C60.2843 2.7169 59.9542 2.16873 59.3884 2.09723C59.0111 2.0734 58.6811 2.26406 58.3746 2.5024C56.8421 3.67024 54.9796 6.69708 54.4609 8.57992C55.4511 7.24525 55.9698 6.69708 56.2056 6.26808C56.7243 5.41007 57.125 4.45674 57.8559 3.7894Z" fill="white"/>
<path d="M16.3615 31.4126C16.0314 31.6509 15.7249 31.5318 15.4184 31.6509C15.1119 31.7701 14.9941 31.9846 14.7819 32.2944C14.3339 32.9618 13.886 33.6291 13.4852 34.3203C12.7072 35.6549 12.0706 37.0611 11.5283 38.515C11.434 38.7533 11.3633 38.9916 11.4576 39.23C12.7779 36.4176 14.4282 33.7959 16.3615 31.4126Z" fill="white"/>
<path d="M20.3702 25.6207C20.6296 25.0964 20.9361 24.5959 21.3369 24.143C21.1718 24.0239 20.9361 24.1669 20.7946 24.3099C20.3467 24.715 19.9694 25.1917 19.6865 25.716C19.9223 25.716 20.158 25.716 20.3938 25.716L20.3702 25.6207Z" fill="white"/>
<path d="M21.6897 23.5951C21.8783 23.5951 22.232 23.1423 22.3499 22.9993C22.6092 22.7133 22.8214 22.4034 23.0571 22.0936C23.788 21.0449 24.5424 19.9724 24.9668 18.7808C24.4717 18.9476 24.1181 19.4004 23.8116 19.8294C23.0571 20.9019 22.3027 21.9744 21.5483 23.0469C21.3832 23.3091 21.3361 23.6189 21.6897 23.5951Z" fill="white"/>
<path d="M26.3814 16.3259C26.3814 16.4212 26.3814 16.5404 26.3814 16.6357V16.2544C25.8863 16.7549 25.5798 17.3984 25.4619 18.0657C26.0749 17.7559 26.4521 17.0171 26.3814 16.3259Z" fill="white"/>
<path d="M28.4327 13.4898C27.4189 12.5603 27.2067 15.3249 27.0889 15.6824C27.2539 15.1581 29.2107 14.2048 28.4327 13.4898Z" fill="white"/>
<path d="M29.8002 11.8926C29.3994 12.1309 29.0693 12.5122 28.9043 12.9413C28.9514 12.9413 29.0222 12.9174 29.0693 12.9174C29.3522 12.6076 29.588 12.2501 29.8002 11.8926Z" fill="white"/>
<path d="M29.0928 12.9177C29.2107 12.8701 29.305 12.8224 29.3757 12.7271L29.0928 12.9177Z" fill="white"/>
<path d="M29.0931 12.9175H29.0695C29.0695 12.9175 29.0695 12.9413 29.0459 12.9413L29.0931 12.9175Z" fill="white"/>
<path d="M31.4268 10.2006C31.4503 10.1767 31.4975 10.1529 31.5211 10.1291C31.5211 10.1052 31.4739 10.1291 31.4268 10.2006Z" fill="white"/>
<path d="M31.2383 10.4152C30.7196 10.3914 30.2481 10.9157 30.2953 11.44C30.4839 11.44 30.6489 11.44 30.8139 11.3685C30.979 11.297 31.1204 11.154 31.144 10.9872C31.1676 10.8204 31.0733 10.6297 31.1912 10.5105C31.2147 10.582 31.3562 10.3437 31.4505 10.2007C31.3562 10.2722 31.309 10.3437 31.2383 10.4152Z" fill="white"/>
<path d="M65.0236 12.5842C65.0943 12.4889 65.1179 12.3459 65.1179 12.2267C65.1179 12.0122 65.1414 11.8216 65.1414 11.6071L65.2122 11.3926C64.9057 11.6547 64.6935 12.0361 64.6699 12.4412C64.6699 12.5127 64.6699 12.5604 64.6935 12.6319C64.7642 12.7272 64.9293 12.7034 65.0236 12.5842Z" fill="white"/>
<path d="M66.3202 10.6298C66.5088 10.2961 66.5088 9.89092 66.721 9.46191C65.9902 9.84325 65.4243 10.7489 65.4715 11.5354C65.778 11.3448 66.1316 10.9396 66.3202 10.6298Z" fill="white"/>
<path d="M76.1037 18.3042C75.7501 18.4949 73.6283 19.5674 73.699 19.8534C74.0055 19.5435 74.6892 19.4959 75.09 19.3052C75.6087 19.0669 75.868 18.8047 76.1037 18.3042Z" fill="white"/>
<path d="M77.3301 27.5038C77.8488 26.9556 77.9902 26.5505 78.1081 25.8354C77.7309 25.9784 77.2122 26.336 77.1415 26.4313C76.5757 26.6696 75.9155 28.2426 75.9391 28.8146C76.4813 28.6001 76.9529 27.909 77.3301 27.5038Z" fill="white"/>
<path d="M101.189 24.8344C101.142 24.8583 101.236 24.9536 101.26 24.8821C101.283 24.8344 101.236 24.7629 101.212 24.7153C100.717 24.0956 100.175 23.5474 99.6328 22.9993C99.9393 22.3081 100.599 21.9029 101.212 22.0221C101.142 21.7123 101.047 21.4024 100.812 21.2594C100.576 21.1403 100.317 21.2833 100.057 21.3309C99.7978 21.3786 99.5385 21.3309 99.3263 21.1641C99.1141 20.9734 99.2084 20.5921 99.2084 20.2823C99.2084 19.9486 99.5385 20.1631 99.7743 20.2823C99.845 20.2108 99.845 19.6864 99.7743 19.5911C99.7035 19.4958 99.5149 19.5196 99.4206 19.4719C99.1141 19.3528 98.9727 19.3766 98.6662 19.2574C98.9491 18.9238 98.9491 18.5662 99.0905 18.3994C65.8245 18.3994 36.4957 23.8811 4.92715 24.9298C4.57351 25.6209 3.8898 26.0023 3.53615 26.7173C3.30039 27.1939 3.25324 27.7659 3.01748 28.2426C2.35734 29.625 0.565552 29.7203 0.046875 31.1741C32.9357 31.3886 59.2232 23.6904 101.189 24.8344Z" fill="#E40521"/>
</g>
<defs>
<clipPath id="clip0">
<rect width="320" height="51.2418" fill="white"/>
</clipPath>
</defs>
</svg>
