<svg width="142" height="22" viewBox="0 0 142 22" fill="none" xmlns="http://www.w3.org/2000/svg">
<g clip-path="url(#clip0)">
<path d="M56.2034 17.7742C56.2658 17.7844 56.3073 17.7844 56.3697 17.8049C55.9748 17.7026 55.5383 17.764 55.133 17.6923C54.7381 17.6105 54.2808 17.457 53.9378 17.2421C53.4182 16.9147 53.148 16.0347 52.9505 15.5026C52.7219 14.8784 52.3997 14.3054 52.0048 13.7733C51.8905 13.6198 51.8281 13.4458 51.6411 13.5174C51.5268 13.5584 51.3813 13.7937 51.3189 13.896C51.0591 14.2644 50.8616 14.6635 50.6122 15.0319C50.1965 15.6765 49.6249 16.2393 49.2508 16.9044C49.0949 17.1807 49.0014 17.3547 48.7519 17.5798C48.5129 17.7947 48.2843 17.9584 48.066 18.1937C47.3489 19.0123 45.8628 19.1044 44.9171 18.6849C44.0649 18.3063 43.6076 16.9454 43.3478 16.1779C43.2335 15.8505 43.1399 15.5435 42.9737 15.2263C42.6827 14.643 42.4228 14.0188 42.2877 13.3742C42.1526 12.7398 42.0383 12.0644 42.0383 11.3584C42.0383 10.7342 41.8513 10.0077 41.7265 9.40395C41.6018 8.81047 41.6122 8.21698 41.5291 7.61326C41.4459 7.07093 41.2381 6.49791 41.3004 5.93512C41.3628 5.38256 41.5499 4.90163 41.394 4.3286C41.2797 3.90907 40.9159 3.28488 40.5938 2.98814C40.8847 2.89605 41.7785 2.82442 42.0071 3.01884C42.3085 3.26442 42.267 3.99093 42.6931 4.05232C43.0672 4.11372 42.9425 3.72488 42.9529 3.46907C43.1399 3.65325 43.2439 3.89884 43.4413 4.07279C43.6907 3.93977 43.6907 3.42814 43.8155 3.18256C43.8362 3.15186 44.3039 3.71465 44.3559 3.79651C44.5429 4.12395 44.7404 4.53325 44.8339 4.90163C44.9794 5.43372 44.9794 5.98628 44.9794 6.5593C44.9794 7.20395 44.8443 7.82814 44.8651 8.45233C44.8859 8.97419 44.9794 9.54721 45.0937 10.0588C45.2288 10.683 45.4887 11.3174 45.8316 11.8495C45.9667 11.6756 46.1538 11.6142 46.2993 11.43C46.4136 11.2765 46.4032 11.1128 46.4863 10.9491C46.663 10.5909 47.0579 10.3658 47.4529 10.3965C47.4321 10.6012 47.2346 10.7956 47.1411 10.9695C47.0164 11.1844 46.9644 11.4198 46.8397 11.6347C46.6111 12.0235 46.2681 12.2793 46.1226 12.7193C46.0499 12.9649 45.9148 13.2719 45.9251 13.5277C45.9148 13.497 45.9044 13.4765 45.894 13.4458C45.9563 13.3333 46.3097 13.1593 46.4552 13.0263C46.6422 12.8523 46.7773 12.6681 46.9436 12.4635C47.2554 12.0849 47.5568 11.7472 47.8374 11.3584C48.4402 10.5398 49.0533 9.74163 49.5937 8.90256C49.8639 8.47279 50.2589 7.78721 50.1238 7.28581C49.6873 7.22442 49.3755 7.5314 49.1572 7.85884C49.0325 8.04302 48.9806 8.26814 48.8351 8.44209C48.7 8.60581 48.4609 8.70814 48.3882 8.93326C48.5441 8.49326 48.8455 8.09419 49.0741 7.68488C49.3547 7.19372 49.521 6.69233 50.1757 6.78442C50.5602 6.83558 50.9552 6.86628 51.3501 6.81512C51.6722 6.77419 52.0152 6.6207 52.327 6.6207C52.6284 6.6207 52.7739 6.74349 52.9298 6.9993C53.096 7.27558 53.2727 7.57233 53.439 7.85884C53.5949 8.13512 53.6884 8.76954 54.0106 8.89233C54.1353 8.94349 54.2808 8.8514 54.3951 8.93326C54.4679 8.99465 54.5406 9.27093 54.5718 9.36302C54.5198 9.36302 54.6757 9.30163 54.6237 9.28116C54.7173 8.92302 54.8732 8.69791 55.0706 8.3807C55.1642 8.23744 55.2369 8.08395 55.3304 7.93047C55.4655 7.70535 55.5175 7.68488 55.7358 7.60302C55.954 7.52116 56.006 7.54163 56.1099 7.29605C56.1826 7.13233 56.2346 6.95837 56.297 6.79465C56.4424 6.42628 56.6087 6.07837 56.7334 5.71C56.8582 5.33139 57.0556 4.96302 57.2115 4.58442C57.4921 4.60488 57.9806 4.67651 58.2196 4.7993C57.3466 5.22907 56.8893 6.16023 56.4424 6.95837C56.2242 7.34721 55.9644 7.72581 55.7461 8.10442C55.4967 8.52395 55.3928 9.01512 55.1642 9.45512C55.0083 9.75186 54.9667 9.91558 54.9563 10.2635C54.9459 10.5398 55.0083 10.7444 55.0394 11.0002C55.0187 10.9593 54.9875 10.9184 54.9667 10.8877C55.5799 10.7137 55.9748 9.94628 56.1826 9.45512C56.4528 8.83093 56.7023 8.17605 57.0452 7.59279C57.5337 6.77419 58.5002 4.23651 59.8304 5.24953C60.1422 5.48488 60.3397 5.80209 60.5267 6.12953C60.6826 6.39558 60.8801 7.05046 60.7658 7.32674C60.6722 7.54163 60.7866 8.06349 60.7346 8.32954C60.6722 8.62628 60.5579 8.92302 60.4228 9.21977C60.1734 9.77233 60.0279 10.376 59.7993 10.9491C59.2069 12.443 58.4482 13.8449 57.8039 15.2877C57.5752 15.7993 57.2739 16.2598 57.014 16.7509C56.8581 17.0886 56.3177 17.457 56.2034 17.7742Z" fill="#494B69"/>
<path d="M47.5459 10.2938C47.5563 10.1403 47.6394 9.90494 47.6914 9.77192C47.7226 9.69006 47.7226 9.69006 47.8161 9.73099C47.8681 9.75145 47.9408 9.80261 47.9824 9.84354C47.8057 9.96634 47.6602 10.1505 47.5459 10.2938Z" fill="#494B69"/>
<path d="M75.7509 8.82104C75.4807 8.48337 74.9714 8.10476 74.5869 7.92058C74.1712 7.72616 73.8075 7.65453 73.5996 7.19407C73.4229 6.80523 73.3814 6.3243 73.2151 5.92523C72.8825 5.08616 72.5188 3.67407 71.625 3.26476C71.1678 3.04988 70.8352 3.20337 70.3779 3.2136C69.9518 3.22383 69.7751 2.82476 69.4114 2.7736C69.1932 2.7429 68.9645 2.94756 68.819 3.08058C68.4761 3.37732 68.0604 3.66383 67.7486 3.98104C67.3225 4.41081 67.0107 4.99407 66.647 5.475C66.0234 6.28337 65.4414 7.18383 64.6932 7.87965C64.5165 8.04337 64.3086 8.16616 64.1527 8.35035C63.9241 8.62662 63.8618 8.97453 63.6643 9.29174C63.4149 9.69081 63.3109 10.0899 63.0927 10.489C62.8329 10.9699 62.386 11.3485 62.0742 11.809C61.8664 12.1262 61.4715 12.5457 61.3364 12.7401C61.0661 12.6787 60.7232 12.7094 60.6193 12.9141C60.5153 13.1392 60.4842 13.4769 60.3906 13.7327C60.2867 13.9987 60.1412 14.3159 60.214 14.5922C60.2971 14.9401 60.5881 14.848 60.7959 15.0527C61.0246 15.2778 60.9934 15.728 60.8687 15.9736C61.1493 16.209 61.4091 16.4545 61.6897 16.6694C61.9183 16.8331 61.9495 16.8331 61.8456 17.1094C61.7832 17.2731 61.7001 17.4266 61.6377 17.5801C62.1158 17.8052 62.3444 18.0713 62.6874 18.4294C63.2278 18.0508 63.4668 17.2424 63.8306 16.7206C64.2879 16.0452 64.6932 15.3494 65.1504 14.6741C65.3687 14.3569 65.5973 14.0499 65.7948 13.7327C65.8987 13.5689 65.9818 13.221 66.1585 13.1596C66.3664 13.088 66.7405 13.3029 66.9276 13.3541C67.3537 13.4769 67.7174 13.395 68.1331 13.2415C69.2243 12.8424 70.3156 12.8629 71.438 12.8527C71.5419 13.0471 71.5107 13.2927 71.5627 13.5076C71.6146 13.7224 71.7186 13.8862 71.8433 14.0703C72.1239 14.5001 72.5396 14.6229 72.9865 14.848C73.4957 15.1038 73.6932 14.9196 74.0777 14.4796C74.4518 14.0396 74.6285 13.5076 74.7012 12.9652C74.774 12.4229 74.6077 11.901 74.6181 11.3485C74.6285 10.7243 74.8987 10.5196 75.3872 10.1206C75.8756 9.66011 76.177 9.36337 75.7509 8.82104ZM63.7059 10.929C63.55 11.2666 63.2278 11.5634 62.968 11.8294C62.6978 12.1057 62.4068 12.249 62.5107 12.6685C62.386 12.689 62.2717 12.6889 62.147 12.7094C62.2197 12.6685 62.1885 12.515 62.2301 12.4127C62.2821 12.2899 62.3444 12.2592 62.438 12.1876C62.7394 11.942 62.8952 11.6248 63.0823 11.2871C63.3006 10.9187 63.3213 10.315 63.8825 10.3662C63.8098 10.5401 63.789 10.7448 63.7059 10.929ZM64.9738 9.20988C64.8491 9.63965 64.132 9.80337 64.0073 10.1922C63.9865 9.91593 64.0488 9.69081 64.1943 9.435C64.2775 9.30197 64.3918 8.94383 64.5269 8.89267C64.7451 8.79035 65.0361 9.01546 64.9738 9.20988ZM69.3179 3.90942C68.9437 4.14476 68.7255 4.41081 68.4033 4.70756C67.8421 5.22942 67.3017 5.8843 66.886 6.51872C66.4703 7.1736 66.0962 7.72616 65.3895 8.115C65.3895 8.12523 65.3895 8.13546 65.3895 8.14569C65.3687 8.14569 65.3479 8.14569 65.3479 8.14569C65.3687 8.13546 65.3791 8.12523 65.3895 8.115C65.3999 8.0229 65.4518 7.96151 65.4934 7.86942C65.6077 7.63407 65.774 7.49081 65.8987 7.25546C66.0338 6.99965 66.1585 6.69267 66.3456 6.47779C66.6678 6.10942 66.9587 5.62849 67.2601 5.23965C67.5927 4.80988 67.9564 4.40058 68.3825 4.05267C68.58 3.88895 68.7775 3.72523 68.9749 3.56151C69.0996 3.45918 69.2867 3.2136 69.453 3.22383C69.6089 3.23407 69.7024 3.44895 69.7336 3.58197C69.7959 3.82756 69.4945 3.80709 69.3179 3.90942Z" fill="#494B69"/>
<path d="M77.1128 8.42187C77.2687 8.55489 77.1959 8.70838 77.1959 8.89256C77.2063 9.67024 78.1313 10.3047 78.6405 10.8265C78.9523 11.1335 79.316 11.3995 79.6486 11.6861C79.9292 11.9316 80.2306 12.0135 80.189 12.4433C80.1578 12.8014 79.9707 13.2005 79.8149 13.5177C79.6174 13.927 79.4303 14.3465 79.2121 14.7558C78.734 15.6665 78.4119 16.833 77.6948 17.5902C77.3414 17.9586 76.9985 18.2656 76.7179 18.6954C76.4269 19.1149 76.3333 19.6982 76.3541 20.1995C76.3749 20.6088 76.6035 20.8749 76.8841 21.1614C77.1024 21.3865 77.3622 21.7447 77.6324 21.9084C78.0481 22.154 78.7236 21.9084 79.1809 21.9084C79.4303 21.9084 79.7005 21.9493 79.8772 21.7958C79.9707 21.714 80.0435 21.5809 80.1162 21.4786C80.5112 20.9363 80.9373 20.4144 81.2906 19.8516C81.6232 19.3298 81.9246 18.7875 82.2571 18.2554C82.3922 18.0302 82.5897 17.8256 82.756 17.6107C82.8807 17.447 82.9846 17.0479 83.1405 16.9251C83.3276 16.7819 83.4627 16.4647 83.5666 16.2702C83.7225 15.9837 83.8576 15.6972 84.0446 15.4312C84.5019 14.7661 84.9176 14.0907 85.3541 13.4256C85.7075 12.8833 86.0192 12.3512 86.4038 11.8191C86.7571 11.3279 87.1001 10.8061 87.4534 10.3251C87.7964 9.86466 88.1393 9.42466 88.4927 8.96419C88.9188 8.41163 89.2409 7.83861 89.6047 7.24512C89.9269 6.72326 90.1555 6.12977 90.5088 5.62838C90.8414 5.16791 91.1324 4.66652 91.413 4.16512C91.7767 3.5307 91.9534 2.77349 92.2652 2.10837C92.0469 2.11861 91.8287 2.15954 91.6208 2.10837C91.7767 1.78093 91.8391 1.3614 91.7975 1.01349C91.4753 1.00326 91.2675 1.15675 90.9453 0.952095C90.6439 0.757677 90.7686 0.563258 90.9661 0.348374C90.8102 0.225583 90.6232 0.0311646 90.4361 -0.00976562C90.3737 0.53256 89.7086 0.962328 89.2513 1.18744C89.0643 1.27954 88.8564 1.35117 88.6693 1.44326C88.4095 1.57628 88.2536 1.81163 88.0562 2.02651C87.8172 2.31303 87.7652 2.6507 87.4742 2.89628C87.2975 3.03954 87.1208 3.13163 86.965 3.31582C86.7779 3.55117 86.57 3.76605 86.3726 3.98093C85.7906 4.64605 85.3229 5.37256 84.7409 6.02745C84.3772 6.43675 84.0862 6.86652 83.8056 7.33721C83.6289 7.64419 83.4938 7.97163 83.3068 8.26838C83.0989 8.60605 82.8287 8.9028 82.5897 9.22001C82.0077 9.04605 81.4153 8.86187 80.8957 8.49349C80.0227 7.88977 79.4303 6.90745 78.7548 6.10931C78.6301 5.96605 78.5158 5.7921 78.3391 5.7C78.1416 5.59768 77.8714 5.55675 77.674 5.50559C77.4453 5.44419 77.2479 5.41349 77.0192 5.30093C76.8426 5.21907 76.562 5.01442 76.3645 5.04512C76.3437 5.30093 76.4892 5.48512 76.51 5.71024C76.4373 5.52605 76.1359 5.38279 76.0008 5.23954C75.7721 5.00419 75.5435 5.02465 75.2109 5.04512C75.2941 5.51582 75.5643 6.00698 75.8449 6.40605C76.1255 6.81535 76.2918 7.27582 76.5828 7.68512C76.7387 7.91024 76.9049 8.14559 77.0504 8.36047C77.0608 8.36047 77.1336 8.44233 77.1128 8.42187Z" fill="#494B69"/>
<path d="M137.38 7.08098C137.421 7.10144 137.463 7.12191 137.515 7.13214C137.328 7.14237 136.788 6.98888 136.891 6.73307C136.964 6.52842 137.588 6.45679 137.785 6.39539C138.222 6.26237 138.367 6.01679 138.71 5.74051C138.96 5.54609 139.282 5.50516 139.542 5.34144C139.833 5.16749 139.895 4.91167 140.082 4.64563C140.29 4.35912 140.508 4.20563 140.82 4.04191C141.121 3.87819 141.173 3.78609 140.83 3.68377C140.508 3.58144 140.56 3.53028 140.456 3.23353C140.3 2.77307 139.853 2.27167 140.633 2.12842C140.425 2.12842 140.217 2.12842 140.009 2.15912C138.949 2.27167 137.962 2.68098 136.912 2.87539C135.686 3.10051 134.48 3.41772 133.264 3.694C132.797 3.80656 132.298 3.90888 131.809 3.98051C131.373 4.04191 130.916 4.04191 130.479 4.11353C129.679 4.22609 128.837 4.27725 128.037 4.43074C126.634 4.70702 125.137 4.89121 123.776 5.33121C123.194 5.51539 122.612 5.76098 122.02 5.85307C121.458 5.94516 120.897 6.03725 120.346 6.11912C119.744 6.21121 119.12 6.13958 118.549 6.334C118.143 6.46702 117.488 6.75353 117.437 7.23446C117.478 6.93772 118.652 7.22423 118.07 7.654C117.863 7.80749 117.748 7.80749 117.967 8.08377C118.164 8.33958 118.237 8.30888 118.486 8.14516C118.704 8.01214 118.829 7.99167 119.11 7.99167C119.286 7.99167 119.733 7.99167 119.65 8.25772C119.525 8.63632 118.632 8.49307 118.538 8.99446C118.476 9.31167 118.902 9.27074 119.12 9.33214C119.37 9.40377 119.609 9.52656 119.816 9.66981C120.045 9.83353 120.076 9.94609 120.388 9.89493C120.71 9.84377 121.167 9.78237 121.438 9.60842C121.646 9.47539 121.76 9.21958 122.02 9.46516C122.196 9.63911 122.217 9.93586 122.425 10.0996C122.789 10.3759 123.35 10.0996 123.766 10.0177C124.067 9.95632 124.368 9.89493 124.659 9.78237C124.805 9.72098 124.898 9.63911 125.054 9.68005C125.387 9.77214 125.335 10.0382 125.262 10.2531C125.158 10.56 125.065 10.8568 124.961 11.1638C124.878 11.4298 124.68 11.6447 124.597 11.921C124.535 12.1461 124.503 12.3814 124.42 12.5963C124.233 13.1489 123.901 13.681 123.838 14.2642C123.818 14.4177 123.818 14.6326 123.849 14.7861C123.121 14.7042 123.371 15.5331 123.36 15.9526C123.537 15.7684 123.693 15.5638 123.807 15.3284C124.036 15.8093 123.87 16.5666 123.89 17.0986C124.233 17.1191 124.722 16.9349 125.044 16.8121C125.179 16.761 125.74 16.4745 125.543 16.8838C125.813 16.7303 125.813 16.4847 125.875 16.2084C125.948 15.8196 126.052 15.4307 126.177 15.0624C126.229 14.9089 126.374 14.2642 126.655 14.5303C126.852 14.7247 126.499 15.2159 126.478 15.441C126.769 15.5024 126.883 15.1852 126.977 14.9805C127.206 14.4791 127.476 13.988 127.642 13.4559C127.829 12.8931 127.995 12.3303 128.193 11.7777C128.338 11.3684 128.494 10.8875 128.692 10.5089C128.868 10.1814 129.191 9.64935 129.492 9.40377C129.887 9.08656 130.583 8.93307 131.051 8.78981C132.173 8.44191 133.41 8.21679 134.564 8.01214C135.197 7.89958 135.79 7.79725 136.413 7.64377C136.715 7.57214 137.214 7.63353 137.401 7.32656C137.318 7.32656 137.463 7.04004 137.38 7.08098Z" fill="#494B69"/>
<path d="M116.595 6.50846C116.397 5.82288 115.992 5.1373 115.296 4.79963C115.316 4.80986 115.348 4.80986 115.368 4.82009C115.015 4.51311 114.298 4.87125 113.861 4.6666C113.435 4.47218 113.217 4.29823 112.749 4.53358C112.718 4.84056 112.833 4.78939 112.947 5.02474C113.02 5.17823 112.947 5.44428 112.905 5.61823C112.822 5.93544 112.697 6.31404 112.562 6.61079C112.469 6.79497 112.313 6.94846 112.271 7.13265C112.365 7.25544 112.5 7.18381 112.635 7.13265C112.417 7.54195 112.438 8.02288 112.188 8.45265C111.741 9.24056 111.055 10.1103 110.349 10.714C109.933 11.0722 109.341 11.2052 108.925 11.5633C108.592 11.8499 108.353 12.1261 107.886 12.1159C108.291 11.901 108.509 11.4917 108.904 11.2257C109.569 10.7754 110.047 10.0694 110.629 9.52707C110.92 9.25079 111.201 8.93358 111.45 8.60614C111.669 8.30939 111.814 7.85916 112.084 7.61358C111.575 7.84893 111.18 8.20707 110.848 8.64707C110.359 9.30195 109.808 9.98753 109.185 10.5503C108.883 10.8266 108.54 10.9801 108.249 11.2871C108.083 11.461 107.709 12.2285 107.428 12.1568C107.054 12.0545 107.002 11.6043 107.117 11.2768C107.21 10.9801 107.418 10.6731 107.553 10.3968C107.699 10.0899 107.875 9.79311 108.052 9.5066C108.281 9.1587 108.925 8.2173 108.748 7.81823C108.79 7.8387 108.842 7.84893 108.883 7.8387C108.675 7.7159 108.686 7.10195 108.665 6.8666C108.644 6.41637 108.759 6.0787 108.946 5.68986C109.039 5.49544 109.351 4.73823 109.029 4.74846C108.883 4.7587 108.759 5.06567 108.613 4.95311C108.551 4.91218 108.561 4.53358 108.551 4.45172C108.509 4.15498 108.426 3.8173 108.208 3.59218C108.135 3.7866 108.083 4.02195 107.896 4.13451C107.709 4.24707 107.47 4.21637 107.272 4.3187C107.148 4.38009 107.096 4.49265 106.981 4.42102C106.898 4.36986 106.898 4.16521 106.898 4.08335C106.878 3.79684 106.93 3.61265 107.054 3.38753C106.888 3.3466 106.514 3.33637 106.42 3.408C105.859 3.8787 105.838 4.82009 105.412 5.41358C105.319 5.5466 105.194 5.6387 105.1 5.78195C104.976 5.96614 105.048 6.09916 104.757 6.03777C104.466 5.9866 104.165 5.61823 103.905 5.44428C103.531 5.1987 103.157 4.88149 102.721 4.78939C102.149 4.67684 101.588 4.56428 101.027 4.36986C99.7898 3.94009 98.4803 3.72521 97.1501 3.7866C96.4745 3.8173 95.903 3.94009 95.2482 4.13451C94.9676 4.21637 94.6766 4.30846 94.396 4.39032C94.0323 4.50288 93.5854 4.52335 93.2424 4.6666C92.7748 4.86102 92.463 5.38288 92.2032 5.79218C92.0577 6.0173 91.933 6.26288 91.7563 6.46753C91.5381 6.71311 91.3302 6.85637 91.2574 7.20428C91.1223 7.81823 91.4341 8.37079 91.1847 8.97451C90.9249 9.59869 90.3949 10.0592 90.1247 10.6731C89.9168 11.154 90.135 11.7885 90.1143 12.2899C90.0727 13.262 90.0935 14.0396 90.5819 14.9094C90.8417 15.3699 91.1016 15.7587 91.4237 16.168C91.6316 16.4238 91.7667 16.7308 92.0057 16.9559C92.3279 17.2526 92.7852 17.5085 93.1697 17.7336C93.5958 17.9689 94.0531 18.2145 94.5103 18.3782C95.7471 18.8285 97.0669 18.8899 98.314 18.5829C100.018 18.1633 101.172 17.0173 102.44 15.6154C102.772 15.2471 103.386 14.5308 103.916 14.1419C103.926 14.1726 103.936 14.2033 103.926 14.1522C104.415 14.3978 104.3 14.9094 104.425 15.3903C104.716 16.5671 105.568 17.3447 106.826 17.355C107.906 17.3652 108.873 17.0275 109.891 16.7308C110.286 16.608 111.18 16.434 111.18 15.9326C111.222 15.9224 111.315 15.9224 111.357 15.9326C111.398 16.035 111.43 16.1475 111.471 16.2601C111.575 16.5773 111.596 16.7922 111.897 16.9559C112.136 17.0889 112.375 17.2526 112.614 17.3652C113.124 17.6006 113.82 17.4778 114.194 17.0787C114.62 16.6285 114.682 16.0452 114.797 15.4517C114.984 14.5206 115.192 13.9578 115.296 13.2722C115.4 12.6275 115.628 12.0238 115.774 11.3996C115.93 10.7345 116.033 10.0285 116.252 9.37358C116.553 8.49358 116.844 7.3987 116.595 6.50846ZM91.9745 7.34753C91.8706 7.42939 92.0265 8.13544 91.6212 8.01265C91.6212 7.82846 91.6939 7.21451 91.9745 7.34753C91.9745 7.3373 91.9849 7.3373 91.9745 7.34753L92.0161 7.368C91.9953 7.35777 91.9849 7.34753 91.9745 7.34753ZM93.3048 5.41358H93.2736C93.3152 5.28056 93.4399 5.08614 93.5542 4.99404C93.7517 4.84056 93.8972 4.94288 94.1362 4.92242C94.0842 5.06567 94.0011 5.26009 93.866 5.35218C93.6893 5.49544 93.5334 5.39311 93.3048 5.41358ZM99.1558 12.4126C98.6154 12.8629 98.0958 13.4257 97.4515 13.7326C96.8695 14.0089 96.2563 14.101 95.612 14.0703C95.03 14.0396 94.396 13.8861 93.6997 13.6201C93.627 13.7326 93.6581 13.6713 93.6893 13.6201C93.6893 13.6201 93.6893 13.6201 93.6997 13.6201C93.7101 13.6099 93.7205 13.5894 93.7309 13.5689H93.6997C93.7101 12.8424 94.0323 12.4638 94.3856 11.8499C94.6662 11.3689 95.217 10.6526 95.6535 10.2843C96.3083 9.75218 96.7551 9.32242 97.5554 9.0359C98.2309 8.79032 99.3845 8.61637 100.091 8.7187C100.704 8.81079 101.203 8.87218 101.879 9.38381C101.349 10.6833 100.174 11.5633 99.1558 12.4126ZM115.16 4.73823C115.202 4.7587 115.244 4.77916 115.285 4.78939C115.254 4.78939 115.14 4.73823 115.16 4.73823Z" fill="#494B69"/>
<path d="M96.9111 13.3845C97.3476 13.4766 98.0335 12.8934 98.2934 12.5352C98.3973 12.4022 98.47 12.2487 98.5532 12.1055C98.1271 12.4227 97.649 12.6478 97.2437 12.9855C97.0982 13.1083 97.0255 13.2004 96.9111 13.3845Z" fill="#494B69"/>
<path d="M5.90296 18.7471C5.97571 18.8085 6.05885 18.8699 6.15239 18.9006C6.28749 18.9415 6.43299 18.8903 6.57848 18.8699C7.40989 18.7368 8.15816 19.4736 9.01035 19.494C9.0831 19.494 9.16624 19.494 9.23899 19.4633C9.39488 19.4019 9.62352 19.1871 9.70666 19.054C10.4341 17.8773 11.0889 16.9154 11.8787 15.7796C12.9076 14.2857 13.9468 12.7099 15.0588 11.2773C15.5889 11.6968 15.5889 12.4131 15.4953 13.0782C15.3602 14.0299 15.2875 15.0838 15.5265 16.015C15.6408 16.4652 16.1709 17.2019 16.3683 17.6317C16.7528 18.4708 16.8983 18.9517 17.5635 19.5964C17.7921 19.8215 18.0519 20.0466 18.3533 20.1592C18.8729 20.3536 19.4757 20.2103 19.9642 19.9443C20.5877 19.6168 20.8579 18.9517 21.284 18.348C21.7413 17.7033 22.0115 17.9182 22.8741 16.2094C23.5288 14.9201 23.8822 13.9275 24.6304 12.7712C24.8071 12.8736 24.9214 13.0578 24.9422 13.2522C25.1501 12.7303 25.1189 12.1266 24.8695 11.6252C25.2332 10.9703 25.9919 10.5712 26.4699 10.0289C26.4284 10.121 26.3868 10.2131 26.3348 10.3052C26.1685 10.5712 25.5658 11.308 25.8152 11.6661C25.7944 11.7071 25.8983 11.6764 25.8568 11.6968C25.7009 12.0345 25.7113 12.4029 25.6385 12.7508C25.6073 12.8838 25.6177 13.1294 25.5138 13.2317C25.3891 13.375 25.202 13.2829 25.0565 13.3545C25.493 13.6615 25.4411 14.2652 25.5138 14.7154C25.5866 15.1861 25.6073 15.6773 25.6801 16.1582C25.836 17.161 26.3972 18.1433 27.3117 18.7061C28.5588 19.4736 30.2736 19.2178 31.6351 18.9108C32.3314 18.7471 33.1212 18.5015 33.7344 18.1331C34.5138 17.6522 35.2205 17.0792 35.9376 16.4959C36.2909 16.2094 36.4468 15.8103 36.769 15.4931C37.1951 15.0736 37.6108 14.7052 37.9226 14.214C38.2136 13.7638 38.8163 13.375 38.9618 12.8633C39.0969 12.4029 39.2217 11.9322 39.3672 11.4717C39.4191 11.2978 39.4815 11.1238 39.4919 10.9396C39.4815 10.9908 39.4607 11.0317 39.4399 11.0829C39.4295 10.8066 39.7413 10.3564 39.8036 10.0903C39.866 9.82427 39.8764 9.54799 39.8972 9.26148C39.9284 8.71916 39.8348 8.25869 39.6062 7.78799C39.3983 7.36846 39.1073 6.96939 38.8683 6.57032C38.5669 6.07916 38.224 5.63916 37.8394 5.21962C37.6732 5.03543 37.5277 4.80009 37.3614 4.62613C37.1743 4.44195 36.9353 4.46241 36.717 4.33962C36.4572 4.18613 36.2909 3.92009 36.0623 3.75636C35.8025 3.56195 35.4491 3.38799 35.1581 3.25497C34.7217 3.05032 34.3787 2.98892 33.9006 2.96846C33.5161 2.94799 33.2043 2.80474 32.8614 2.65125C32.4873 2.48753 32.217 2.23171 31.8013 2.23171C31.687 2.23171 31.2713 2.24195 31.2194 2.39543C31.1778 2.51823 31.4376 2.73311 31.4584 2.87636C31.5207 3.25497 30.8764 3.50055 30.627 3.71543C30.2632 4.03264 29.9411 4.44195 29.6293 4.80009C28.9746 5.54706 28.5173 6.56009 27.9665 7.38892C27.8729 7.52195 27.7898 7.6652 27.717 7.79823C27.6755 7.80846 27.6443 7.80846 27.6131 7.79823C27.5923 7.67543 27.6235 7.52195 27.6651 7.39916C27.9145 6.7545 28.1639 6.10985 28.4133 5.4652C28.299 5.5573 28.1847 5.63916 28.0704 5.73125C27.8729 5.17869 27.9665 4.53404 28.3198 4.06334C28.3926 3.97125 28.4757 3.86892 28.4757 3.75636C28.4757 3.54148 28.2159 3.40846 28.1743 3.19357C28.1224 2.8559 28.6628 2.53869 28.4549 2.27264C28.3822 2.17032 28.2367 2.14985 28.1535 2.05776C28.0288 1.92474 28.0808 1.67916 27.8106 1.62799C27.6547 1.59729 27.4988 1.65869 27.3845 1.77125C26.0438 3.12195 25.1189 4.89218 24.1628 6.53962C23.7055 7.32753 23.3833 8.1359 22.7494 8.78055C22.5 9.03637 22.2297 9.27171 22.0115 9.54799C21.7517 9.87543 21.5854 10.2643 21.3983 10.6326C20.8579 11.7173 20.1304 12.7508 19.351 13.6819C19.3198 13.7229 19.2575 13.6922 19.2575 13.6512C19.3094 12.5052 19.1328 11.5843 19.1016 10.5303C19.0808 9.56846 19.2159 8.46334 19.2471 7.39916C19.2575 6.98985 19.0704 5.94613 18.9561 5.54706C18.8418 5.12753 18.6443 4.89218 18.3741 4.5545C18.0415 4.13497 17.7505 3.7973 17.366 3.41869C17.2413 3.2959 16.9711 3.15264 16.8048 3.13218C16.3475 3.07078 16.1189 3.69497 15.7032 3.87916C15.5889 3.93032 15.4538 3.95078 15.3395 3.98148C15.09 3.86892 14.8302 3.74613 14.5808 3.63357C14.5184 3.60288 14.4561 3.58241 14.3937 3.59264C14.3522 3.60288 14.321 3.63357 14.2898 3.65404C14.2274 3.7052 14.1755 3.74613 14.1131 3.79729C14.0612 3.83823 14.0092 3.87916 13.9676 3.94055C13.8845 4.06334 13.8949 4.22706 13.9157 4.37032C14.1131 4.19636 14.4041 4.08381 14.6535 4.06334C14.799 4.05311 14.9653 4.06334 15.09 4.12474C14.9653 4.23729 14.8822 4.40102 14.7782 4.54427C12.7517 7.26613 11.3383 9.49683 9.43645 11.9629C8.54269 13.1294 7.62814 14.5312 6.72398 15.6875C6.21474 16.3526 5.67433 17.0485 4.90527 17.3964C5.11313 17.8978 5.46647 18.3685 5.90296 18.7471ZM31.6662 3.25497L31.5935 3.27543C31.4896 3.21404 31.5 3.44939 31.5415 3.55171C31.4168 3.61311 31.3025 3.68474 31.1674 3.62334C31.0219 3.38799 31.5103 3.25497 31.6662 3.25497ZM28.6836 12.9554C28.9122 12.5257 29.1824 12.0754 29.4942 11.7071C29.9722 11.134 30.5542 10.6326 31.0427 10.0699C31.1986 9.88567 31.3648 9.70148 31.5 9.50706C31.5519 9.43544 31.5519 9.36381 31.6039 9.32288C31.7702 8.96474 32.1339 8.69869 32.3729 8.39171C32.6016 8.1052 32.8198 7.78799 33.142 7.59357C33.3291 7.48102 33.5681 7.35823 33.7863 7.38892C33.8175 7.65497 33.672 7.77776 34.0461 7.65497C34.2332 7.59357 34.4618 7.51171 34.6385 7.41962C34.4618 7.29683 34.1812 7.21497 34.1085 7.00009C34.7736 6.91823 35.1685 7.42985 35.5115 7.92102C35.657 8.1359 35.7713 8.28939 35.9688 8.46334C36.1039 8.5759 36.239 8.65776 36.3221 8.82148C36.6235 9.43543 35.896 9.88567 35.7194 10.4178C35.5842 10.8168 35.5219 11.308 35.3348 11.6764C35.1062 12.1164 34.5034 12.3722 34.1605 12.7406C33.4226 13.508 32.5392 14.0708 31.5727 14.5517C31.4376 14.6233 31.0427 14.8485 30.8868 14.7973C30.5854 14.7154 30.9388 14.3982 31.0635 14.2857C31.396 13.9685 31.7598 13.7024 32.1443 13.4466C32.3106 13.334 32.6847 13.1294 32.7159 12.9247C32.4353 12.8633 32.2378 12.9657 32.0196 13.1499C31.7598 13.375 31.4792 13.5489 31.1986 13.7536C30.6893 14.1219 30.284 14.4187 29.6812 14.6336C29.3279 14.7564 28.5485 14.961 28.2159 14.7154C27.8521 14.4596 28.5381 13.2419 28.6836 12.9554ZM26.948 8.40195C27.0207 8.25869 27.187 8.1666 27.3325 8.15636C27.4884 8.22799 27.53 8.37125 27.478 8.5759C27.3949 8.89311 27.0727 9.05683 26.8545 9.27171C26.8337 9.29218 26.8233 9.30241 26.8129 9.32288C26.8129 9.30241 26.8233 9.28195 26.8233 9.26148C26.8752 8.96474 26.8233 8.65776 26.948 8.40195Z" fill="#494B69"/>
<path d="M20.8266 9.41409C20.8786 9.30154 21.2527 8.5034 21.3775 8.51363C21.2631 8.5034 21.1488 8.49316 21.0345 8.49316C21.0033 8.73875 20.8474 8.9434 20.7331 9.15828C20.5772 9.44479 20.4005 10.376 20.8266 9.41409Z" fill="#494B69"/>
<path d="M22.999 5.40282C23.1548 5.31072 23.2484 5.13677 23.2484 4.96282L23.186 4.91165C23.2172 4.91165 23.1964 4.86049 23.1652 4.86049C23.0821 4.85026 23.0093 4.91165 22.9886 4.99351C22.9574 5.06514 22.9678 5.147 22.9782 5.22886C22.9782 5.29026 22.9886 5.34142 22.999 5.40282Z" fill="#1E1E2D"/>
<path d="M25.5034 1.62777C25.8048 1.35149 26.2932 1.20823 26.6466 1.41288H26.6569C26.6466 1.42312 26.6362 1.43335 26.6258 1.45381C26.5946 1.54591 26.5218 1.65847 26.6154 1.68916C26.7089 1.71986 26.9687 1.70963 27.0623 1.6994C27.1038 1.68916 27.1558 1.68916 27.187 1.64823C27.2285 1.59707 27.187 1.51521 27.135 1.47428C27.0103 1.36172 26.8336 1.34126 26.6777 1.39242C26.5738 1.1673 26.4283 0.931954 26.1789 0.901256C26.0126 0.891023 25.8671 0.972884 25.732 1.07521C25.0565 1.5766 24.2355 2.87614 24.0068 3.68451C24.4433 3.11149 24.672 2.87614 24.7759 2.69195C25.0045 2.32358 25.1812 1.91428 25.5034 1.62777Z" fill="#1E1E2D"/>
<path d="M7.21254 13.4868C7.06705 13.5891 6.93194 13.538 6.79684 13.5891C6.66174 13.6403 6.60977 13.7324 6.51624 13.8654C6.31878 14.1519 6.12132 14.4384 5.94465 14.7352C5.60169 15.3082 5.32109 15.9119 5.08206 16.5361C5.04049 16.6384 5.00931 16.7408 5.05088 16.8431C5.63287 15.6357 6.36035 14.5101 7.21254 13.4868Z" fill="#494B69"/>
<path d="M8.97912 11.0006C9.09344 10.7755 9.22854 10.5606 9.40522 10.3662C9.33247 10.3151 9.22854 10.3765 9.16619 10.4379C8.96873 10.6118 8.80245 10.8165 8.67773 11.0416C8.78166 11.0416 8.88559 11.0416 8.98951 11.0416L8.97912 11.0006Z" fill="#494B69"/>
<path d="M9.561 10.1309C9.64414 10.1309 9.80003 9.93652 9.85199 9.87513C9.96631 9.75234 10.0598 9.61931 10.1638 9.48629C10.4859 9.03606 10.8185 8.57559 11.0056 8.06396C10.7873 8.13559 10.6314 8.33001 10.4963 8.5142C10.1638 8.97466 9.8312 9.43513 9.49864 9.89559C9.42589 10.0082 9.40511 10.1412 9.561 10.1309Z" fill="#494B69"/>
<path d="M11.6299 7.0097C11.6299 7.05063 11.6299 7.1018 11.6299 7.14273V6.979C11.4117 7.19389 11.2766 7.47017 11.2246 7.75668C11.4948 7.62366 11.6611 7.30645 11.6299 7.0097Z" fill="#1E1E2D"/>
<path d="M12.5328 5.7925C12.0859 5.39343 11.9924 6.58041 11.9404 6.73389C12.0132 6.50878 12.8758 6.09948 12.5328 5.7925Z" fill="#1E1E2D"/>
<path d="M13.1361 5.10645C12.9595 5.20877 12.814 5.37249 12.7412 5.55668C12.762 5.55668 12.7932 5.54645 12.814 5.54645C12.9387 5.41342 13.0426 5.25993 13.1361 5.10645Z" fill="#1E1E2D"/>
<path d="M12.8242 5.54622C12.8762 5.52575 12.9178 5.50529 12.9489 5.46436L12.8242 5.54622Z" fill="#1E1E2D"/>
<path d="M12.8245 5.54639H12.8141C12.8141 5.54639 12.8141 5.55662 12.8037 5.55662L12.8245 5.54639Z" fill="#1E1E2D"/>
<path d="M13.8525 4.37975C13.8629 4.36952 13.8837 4.35929 13.8941 4.34905C13.8941 4.33882 13.8733 4.34905 13.8525 4.37975Z" fill="#1E1E2D"/>
<path d="M13.7707 4.47198C13.542 4.46174 13.3342 4.68686 13.355 4.91198C13.4381 4.91198 13.5108 4.91198 13.5836 4.88128C13.6563 4.85058 13.7187 4.78919 13.7291 4.71756C13.7395 4.64593 13.6979 4.56407 13.7499 4.51291C13.7603 4.5436 13.8226 4.44128 13.8642 4.37988C13.8226 4.41058 13.8018 4.44128 13.7707 4.47198Z" fill="#1E1E2D"/>
<path d="M28.6627 5.40274C28.6939 5.36181 28.7043 5.30042 28.7043 5.24925C28.7043 5.15716 28.7147 5.0753 28.7147 4.98321L28.7459 4.89111C28.6108 5.00367 28.5172 5.16739 28.5068 5.34135C28.5068 5.37204 28.5068 5.39251 28.5172 5.42321C28.5484 5.46414 28.6212 5.4539 28.6627 5.40274Z" fill="#1E1E2D"/>
<path d="M29.2347 4.56438C29.3179 4.42113 29.3179 4.24717 29.4114 4.06299C29.0892 4.22671 28.8398 4.61555 28.8606 4.95322C28.9957 4.87136 29.1516 4.69741 29.2347 4.56438Z" fill="#1E1E2D"/>
<path d="M33.5471 7.85938C33.3912 7.94124 32.4559 8.4017 32.4871 8.52449C32.6222 8.39147 32.9236 8.371 33.1002 8.28914C33.3289 8.18682 33.4432 8.07426 33.5471 7.85938Z" fill="#494B69"/>
<path d="M34.088 11.8091C34.3167 11.5737 34.379 11.3997 34.431 11.0928C34.2647 11.1542 34.0361 11.3077 34.0049 11.3486C33.7555 11.4509 33.4645 12.1263 33.4749 12.3718C33.7139 12.2797 33.9218 11.983 34.088 11.8091Z" fill="#494B69"/>
<path d="M44.6048 10.6622C44.584 10.6724 44.6256 10.7134 44.636 10.6827C44.6464 10.6622 44.6256 10.6315 44.6152 10.611C44.3969 10.345 44.1579 10.1096 43.9189 9.8743C44.054 9.57756 44.345 9.4036 44.6152 9.45476C44.584 9.32174 44.5424 9.18872 44.4385 9.12732C44.3346 9.07616 44.2203 9.13755 44.1059 9.15802C43.9916 9.17849 43.8773 9.15802 43.7838 9.08639C43.6902 9.00453 43.7318 8.84081 43.7318 8.70779C43.7318 8.56453 43.8773 8.65662 43.9812 8.70779C44.0124 8.67709 44.0124 8.45197 43.9812 8.41104C43.9501 8.37011 43.8669 8.38034 43.8253 8.35988C43.6902 8.30872 43.6279 8.31895 43.4928 8.26779C43.6175 8.12453 43.6175 7.97104 43.6798 7.89941C29.0159 7.89941 16.0875 10.2529 2.17178 10.7031C2.01589 10.9999 1.7145 11.1636 1.55861 11.4706C1.45469 11.6752 1.4339 11.9208 1.32998 12.1255C1.03898 12.719 0.249145 12.7599 0.0205078 13.3841C14.5182 13.4762 26.1059 10.171 44.6048 10.6622Z" fill="#E40521"/>
</g>
<defs>
<clipPath id="clip0">
<rect width="141.059" height="22" fill="white"/>
</clipPath>
</defs>
</svg>
