<svg width="24" height="24" viewBox="0 0 24 24" fill="none" xmlns="http://www.w3.org/2000/svg">
<path d="M7.752 5.43924L18.26 11.5692C18.3353 11.6133 18.3978 11.6763 18.4412 11.752C18.4846 11.8277 18.5074 11.9135 18.5074 12.0007C18.5074 12.088 18.4846 12.1737 18.4412 12.2494C18.3978 12.3251 18.3353 12.3882 18.26 12.4322L7.752 18.5622C7.67587 18.6067 7.58935 18.6302 7.5012 18.6304C7.41305 18.6306 7.32642 18.6075 7.25007 18.5634C7.17373 18.5194 7.11039 18.4559 7.06647 18.3795C7.02256 18.3031 6.99963 18.2164 7 18.1282V5.87124C6.99998 5.78326 7.02317 5.69684 7.06723 5.62069C7.11129 5.54454 7.17466 5.48136 7.25094 5.43754C7.32723 5.39372 7.41373 5.3708 7.5017 5.3711C7.58968 5.3714 7.67602 5.3949 7.752 5.43924Z" fill="#888C9F"/>
</svg>
