<svg width="25" height="25" viewBox="0 0 25 25" fill="none" xmlns="http://www.w3.org/2000/svg">
<path d="M24.5689 20.6899H0.431054C0.193017 20.6899 0 20.4968 0 20.2588V4.7416C0 4.50356 0.193017 4.31055 0.431054 4.31055H24.5689C24.807 4.31055 25 4.50356 25 4.7416V20.2588C25 20.4969 24.8069 20.6899 24.5689 20.6899Z" fill="#F5F5F5"/>
<path d="M25 5.57055H0V4.7416C0 4.50356 0.193017 4.31055 0.431054 4.31055H24.5689C24.807 4.31055 25 4.50356 25 4.7416L25 5.57055Z" fill="#FF4B55"/>
<path d="M25 9.3501H0V10.6101H25V9.3501Z" fill="#FF4B55"/>
<path d="M25 6.83008H0V8.09004H25V6.83008Z" fill="#FF4B55"/>
<path d="M25 13.1301H0.431054C0.193017 13.1301 0 12.9371 0 12.6991V11.8701H25V13.1301Z" fill="#FF4B55"/>
<path d="M25 16.9106H0V18.1706H25V16.9106Z" fill="#FF4B55"/>
<path d="M24.5689 20.6896H0.431054C0.193017 20.6896 0 20.4966 0 20.2586V19.4297H25V20.2586C25 20.4967 24.8069 20.6896 24.5689 20.6896Z" fill="#FF4B55"/>
<path d="M25 14.3901H0V15.6501H25V14.3901Z" fill="#FF4B55"/>
<path d="M11.2069 4.31055H0.431054C0.193017 4.31055 0 4.50352 0 4.74155V12.6991C0 12.9371 0.193017 13.1301 0.431054 13.1301H11.2069C11.4449 13.1301 11.638 12.9371 11.638 12.6991V4.74155C11.6379 4.50352 11.4449 4.31055 11.2069 4.31055Z" fill="#41479B"/>
<path d="M1.21076 5.29976L1.30617 5.58589L1.60778 5.58819C1.64684 5.58853 1.663 5.63833 1.63161 5.66153L1.38898 5.84073L1.48 6.12827C1.49181 6.16548 1.44938 6.19634 1.41759 6.17359L1.17223 5.99825L0.926872 6.17364C0.895085 6.19634 0.852751 6.16553 0.86447 6.12832L0.955486 5.84078L0.712859 5.66158C0.681463 5.63833 0.697625 5.58858 0.736687 5.58824L1.0383 5.58594L1.13371 5.29981C1.14601 5.2627 1.19836 5.2627 1.21076 5.29976Z" fill="#F5F5F5"/>
<path d="M1.21076 6.79631L1.30617 7.08244L1.60778 7.08473C1.64684 7.08508 1.663 7.13488 1.63161 7.15807L1.38898 7.33727L1.48 7.62482C1.49181 7.66203 1.44938 7.69289 1.41759 7.67013L1.17223 7.49479L0.926872 7.67018C0.895085 7.69289 0.852751 7.66208 0.86447 7.62487L0.955486 7.33732L0.712859 7.15812C0.681463 7.13488 0.697625 7.08513 0.736687 7.08478L1.0383 7.08249L1.13371 6.79636C1.14601 6.7593 1.19836 6.7593 1.21076 6.79631Z" fill="#F5F5F5"/>
<path d="M1.21076 8.29338L1.30617 8.57951L1.60778 8.58181C1.64684 8.58215 1.663 8.63195 1.63161 8.65515L1.38898 8.83435L1.48 9.12189C1.49181 9.1591 1.44938 9.18996 1.41759 9.16721L1.17223 8.99187L0.926872 9.16726C0.895085 9.18996 0.852751 9.15915 0.86447 9.12194L0.955486 8.83439L0.712859 8.65519C0.681463 8.63195 0.697625 8.5822 0.736687 8.58185L1.0383 8.57956L1.13371 8.29343C1.14601 8.25637 1.19836 8.25637 1.21076 8.29338Z" fill="#F5F5F5"/>
<path d="M1.21076 9.79L1.30617 10.0761L1.60778 10.0784C1.64684 10.0788 1.663 10.1286 1.63161 10.1518L1.38898 10.331L1.48 10.6185C1.49181 10.6557 1.44938 10.6866 1.41759 10.6638L1.17223 10.4885L0.926872 10.6639C0.895085 10.6866 0.852751 10.6558 0.86447 10.6186L0.955486 10.331L0.712859 10.1518C0.681463 10.1286 0.697625 10.0788 0.736687 10.0785L1.0383 10.0762L1.13371 9.79004C1.14601 9.75294 1.19836 9.75294 1.21076 9.79Z" fill="#F5F5F5"/>
<path d="M1.21076 11.2871L1.30617 11.5732L1.60778 11.5755C1.64684 11.5759 1.663 11.6257 1.63161 11.6489L1.38898 11.8281L1.48 12.1156C1.49181 12.1528 1.44938 12.1837 1.41759 12.1609L1.17223 11.9856L0.926872 12.161C0.895085 12.1837 0.852751 12.1529 0.86447 12.1157L0.955486 11.8281L0.712859 11.6489C0.681463 11.6257 0.697625 11.5759 0.736687 11.5756L1.0383 11.5733L1.13371 11.2872C1.14601 11.25 1.19836 11.25 1.21076 11.2871Z" fill="#F5F5F5"/>
<path d="M2.37287 6.03362L2.46828 6.31975L2.76989 6.32205C2.80895 6.32239 2.82511 6.37219 2.79372 6.39538L2.55109 6.57458L2.64211 6.86213C2.65392 6.89934 2.61149 6.9302 2.5797 6.90744L2.33434 6.73205L2.08898 6.90744C2.05719 6.93015 2.01486 6.89934 2.02658 6.86213L2.11759 6.57458L1.87497 6.39538C1.84357 6.37214 1.85973 6.32239 1.8988 6.32205L2.20041 6.31975L2.29582 6.03362C2.30807 5.99661 2.36051 5.99661 2.37287 6.03362Z" fill="#F5F5F5"/>
<path d="M2.37287 7.53024L2.46828 7.81637L2.76989 7.81866C2.80895 7.819 2.82511 7.86881 2.79372 7.892L2.55109 8.0712L2.64211 8.35875C2.65392 8.39595 2.61149 8.42681 2.5797 8.40406L2.33434 8.22867L2.08898 8.40406C2.05719 8.42676 2.01486 8.396 2.02658 8.35875L2.11759 8.0712L1.87497 7.892C1.84357 7.86876 1.85973 7.819 1.8988 7.81866L2.20041 7.81637L2.29582 7.53024C2.30807 7.49318 2.36051 7.49318 2.37287 7.53024Z" fill="#F5F5F5"/>
<path d="M2.37287 9.02731L2.46828 9.31344L2.76989 9.31573C2.80895 9.31608 2.82511 9.36588 2.79372 9.38907L2.55109 9.56827L2.64211 9.85582C2.65392 9.89303 2.61149 9.92389 2.5797 9.90113L2.33434 9.72574L2.08898 9.90113C2.05719 9.92384 2.01486 9.89303 2.02658 9.85582L2.11759 9.56827L1.87497 9.38907C1.84357 9.36583 1.85973 9.31608 1.8988 9.31573L2.20041 9.31344L2.29582 9.02731C2.30807 8.99025 2.36051 8.99025 2.37287 9.02731Z" fill="#F5F5F5"/>
<path d="M2.37287 10.5239L2.46828 10.81L2.76989 10.8123C2.80895 10.8126 2.82511 10.8624 2.79372 10.8856L2.55109 11.0648L2.64211 11.3524C2.65392 11.3896 2.61149 11.4204 2.5797 11.3977L2.33434 11.2223L2.08898 11.3977C2.05719 11.4204 2.01486 11.3896 2.02658 11.3524L2.11759 11.0648L1.87497 10.8856C1.84357 10.8624 1.85973 10.8126 1.8988 10.8123L2.20041 10.81L2.29582 10.5239C2.30807 10.4868 2.36051 10.4868 2.37287 10.5239Z" fill="#F5F5F5"/>
<path d="M3.534 5.29977L3.62941 5.5859L3.93102 5.58819C3.97009 5.58854 3.98625 5.63834 3.95485 5.66153L3.71223 5.84073L3.80324 6.12828C3.81506 6.16549 3.77263 6.19635 3.74084 6.17359L3.49548 5.9982L3.25012 6.17359C3.21833 6.1963 3.17599 6.16549 3.18771 6.12828L3.27873 5.84073L3.0361 5.66153C3.00471 5.63829 3.02087 5.58854 3.05993 5.58819L3.36154 5.5859L3.45695 5.29977C3.46926 5.26271 3.52165 5.26271 3.534 5.29977Z" fill="#F5F5F5"/>
<path d="M3.534 6.79631L3.62941 7.08245L3.93102 7.08474C3.97009 7.08508 3.98625 7.13489 3.95485 7.15808L3.71223 7.33728L3.80324 7.62483C3.81506 7.66203 3.77263 7.69289 3.74084 7.67014L3.49548 7.49475L3.25012 7.67014C3.21833 7.69284 3.17599 7.66203 3.18771 7.62483L3.27873 7.33728L3.0361 7.15808C3.00471 7.13484 3.02087 7.08508 3.05993 7.08474L3.36154 7.08245L3.45695 6.79631C3.46926 6.7593 3.52165 6.7593 3.534 6.79631Z" fill="#F5F5F5"/>
<path d="M3.534 8.29338L3.62941 8.57952L3.93102 8.58181C3.97009 8.58216 3.98625 8.63196 3.95485 8.65515L3.71223 8.83435L3.80324 9.1219C3.81506 9.15911 3.77263 9.18997 3.74084 9.16722L3.49548 8.99182L3.25012 9.16722C3.21833 9.18992 3.17599 9.15911 3.18771 9.1219L3.27873 8.83435L3.0361 8.65515C3.00471 8.63191 3.02087 8.58216 3.05993 8.58181L3.36154 8.57952L3.45695 8.29338C3.46926 8.25637 3.52165 8.25637 3.534 8.29338Z" fill="#F5F5F5"/>
<path d="M3.534 9.79049L3.62941 10.0766L3.93102 10.0789C3.97009 10.0793 3.98625 10.1291 3.95485 10.1523L3.71223 10.3315L3.80324 10.619C3.81506 10.6562 3.77263 10.6871 3.74084 10.6643L3.49548 10.4889L3.25012 10.6643C3.21833 10.687 3.17599 10.6562 3.18771 10.619L3.27873 10.3315L3.0361 10.1523C3.00471 10.129 3.02087 10.0793 3.05993 10.0789L3.36154 10.0766L3.45695 9.79049C3.46926 9.75343 3.52165 9.75343 3.534 9.79049Z" fill="#F5F5F5"/>
<path d="M3.534 11.2871L3.62941 11.5732L3.93102 11.5755C3.97009 11.5759 3.98625 11.6257 3.95485 11.6489L3.71223 11.8281L3.80324 12.1156C3.81506 12.1528 3.77263 12.1837 3.74084 12.1609L3.49548 11.9855L3.25012 12.1609C3.21833 12.1836 3.17599 12.1528 3.18771 12.1156L3.27873 11.8281L3.0361 11.6489C3.00471 11.6256 3.02087 11.5759 3.05993 11.5755L3.36154 11.5732L3.45695 11.2871C3.46926 11.25 3.52165 11.25 3.534 11.2871Z" fill="#F5F5F5"/>
<path d="M4.69611 6.03362L4.79152 6.31975L5.09313 6.32205C5.13219 6.32239 5.14836 6.37219 5.11696 6.39538L4.87433 6.57458L4.96535 6.86213C4.97716 6.89934 4.93473 6.9302 4.90295 6.90744L4.65758 6.73205L4.41222 6.90744C4.38044 6.93015 4.3381 6.89934 4.34982 6.86213L4.44084 6.57458L4.19821 6.39538C4.16681 6.37214 4.18298 6.32239 4.22204 6.32205L4.52365 6.31975L4.61906 6.03362C4.63132 5.99661 4.68376 5.99661 4.69611 6.03362Z" fill="#F5F5F5"/>
<path d="M4.69611 7.53024L4.79152 7.81637L5.09313 7.81866C5.13219 7.819 5.14836 7.86881 5.11696 7.892L4.87433 8.0712L4.96535 8.35875C4.97716 8.39595 4.93473 8.42681 4.90295 8.40406L4.65758 8.22867L4.41222 8.40406C4.38044 8.42676 4.3381 8.396 4.34982 8.35875L4.44084 8.0712L4.19821 7.892C4.16681 7.86876 4.18298 7.819 4.22204 7.81866L4.52365 7.81637L4.61906 7.53024C4.63132 7.49318 4.68376 7.49318 4.69611 7.53024Z" fill="#F5F5F5"/>
<path d="M4.69611 9.02731L4.79152 9.31344L5.09313 9.31573C5.13219 9.31608 5.14836 9.36588 5.11696 9.38907L4.87433 9.56827L4.96535 9.85582C4.97716 9.89303 4.93473 9.92389 4.90295 9.90113L4.65758 9.72574L4.41222 9.90113C4.38044 9.92384 4.3381 9.89303 4.34982 9.85582L4.44084 9.56827L4.19821 9.38907C4.16681 9.36583 4.18298 9.31608 4.22204 9.31573L4.52365 9.31344L4.61906 9.02731C4.63132 8.99025 4.68376 8.99025 4.69611 9.02731Z" fill="#F5F5F5"/>
<path d="M4.69611 10.5239L4.79152 10.81L5.09313 10.8123C5.13219 10.8126 5.14836 10.8624 5.11696 10.8856L4.87433 11.0648L4.96535 11.3524C4.97716 11.3896 4.93473 11.4204 4.90295 11.3977L4.65758 11.2223L4.41222 11.3977C4.38044 11.4204 4.3381 11.3896 4.34982 11.3524L4.44084 11.0648L4.19821 10.8856C4.16681 10.8624 4.18298 10.8126 4.22204 10.8123L4.52365 10.81L4.61906 10.5239C4.63132 10.4868 4.68376 10.4868 4.69611 10.5239Z" fill="#F5F5F5"/>
<path d="M5.85827 5.29977L5.95368 5.5859L6.25529 5.58819C6.29435 5.58854 6.31051 5.63834 6.27912 5.66153L6.03649 5.84073L6.12751 6.12828C6.13932 6.16549 6.09689 6.19635 6.0651 6.17359L5.81969 5.9982L5.57433 6.17359C5.54255 6.1963 5.50021 6.16549 5.51193 6.12828L5.60295 5.84073L5.36032 5.66153C5.32892 5.63829 5.34509 5.58854 5.38415 5.58819L5.68576 5.5859L5.78117 5.29977C5.79352 5.26271 5.84592 5.26271 5.85827 5.29977Z" fill="#F5F5F5"/>
<path d="M5.85827 6.79631L5.95368 7.08245L6.25529 7.08474C6.29435 7.08508 6.31051 7.13489 6.27912 7.15808L6.03649 7.33728L6.12751 7.62483C6.13932 7.66203 6.09689 7.69289 6.0651 7.67014L5.81969 7.49475L5.57433 7.67014C5.54255 7.69284 5.50021 7.66203 5.51193 7.62483L5.60295 7.33728L5.36032 7.15808C5.32892 7.13484 5.34509 7.08508 5.38415 7.08474L5.68576 7.08245L5.78117 6.79631C5.79352 6.7593 5.84592 6.7593 5.85827 6.79631Z" fill="#F5F5F5"/>
<path d="M5.85827 8.29338L5.95368 8.57952L6.25529 8.58181C6.29435 8.58216 6.31051 8.63196 6.27912 8.65515L6.03649 8.83435L6.12751 9.1219C6.13932 9.15911 6.09689 9.18997 6.0651 9.16722L5.81969 8.99182L5.57433 9.16722C5.54255 9.18992 5.50021 9.15911 5.51193 9.1219L5.60295 8.83435L5.36032 8.65515C5.32892 8.63191 5.34509 8.58216 5.38415 8.58181L5.68576 8.57952L5.78117 8.29338C5.79352 8.25637 5.84592 8.25637 5.85827 8.29338Z" fill="#F5F5F5"/>
<path d="M5.85827 9.79049L5.95368 10.0766L6.25529 10.0789C6.29435 10.0793 6.31051 10.1291 6.27912 10.1523L6.03649 10.3315L6.12751 10.619C6.13932 10.6562 6.09689 10.6871 6.0651 10.6643L5.81969 10.4889L5.57433 10.6643C5.54255 10.687 5.50021 10.6562 5.51193 10.619L5.60295 10.3315L5.36032 10.1523C5.32892 10.129 5.34509 10.0793 5.38415 10.0789L5.68576 10.0766L5.78117 9.79049C5.79352 9.75343 5.84592 9.75343 5.85827 9.79049Z" fill="#F5F5F5"/>
<path d="M5.85827 11.2871L5.95368 11.5732L6.25529 11.5755C6.29435 11.5759 6.31051 11.6257 6.27912 11.6489L6.03649 11.8281L6.12751 12.1156C6.13932 12.1528 6.09689 12.1837 6.0651 12.1609L5.81969 11.9855L5.57433 12.1609C5.54255 12.1836 5.50021 12.1528 5.51193 12.1156L5.60295 11.8281L5.36032 11.6489C5.32892 11.6256 5.34509 11.5759 5.38415 11.5755L5.68576 11.5732L5.78117 11.2871C5.79352 11.25 5.84592 11.25 5.85827 11.2871Z" fill="#F5F5F5"/>
<path d="M7.01935 6.03362L7.11476 6.31975L7.41638 6.32205C7.45544 6.32239 7.4716 6.37219 7.4402 6.39538L7.19758 6.57458L7.28859 6.86213C7.30041 6.89934 7.25798 6.9302 7.22619 6.90744L6.98083 6.73205L6.73547 6.90744C6.70368 6.93015 6.66135 6.89934 6.67306 6.86213L6.76408 6.57458L6.52145 6.39538C6.49006 6.37214 6.50622 6.32239 6.54528 6.32205L6.84689 6.31975L6.9423 6.03362C6.95466 5.99661 7.007 5.99661 7.01935 6.03362Z" fill="#F5F5F5"/>
<path d="M7.01935 7.53024L7.11476 7.81637L7.41638 7.81866C7.45544 7.819 7.4716 7.86881 7.4402 7.892L7.19758 8.0712L7.28859 8.35875C7.30041 8.39595 7.25798 8.42681 7.22619 8.40406L6.98083 8.22867L6.73547 8.40406C6.70368 8.42676 6.66135 8.396 6.67306 8.35875L6.76408 8.0712L6.52145 7.892C6.49006 7.86876 6.50622 7.819 6.54528 7.81866L6.84689 7.81637L6.9423 7.53024C6.95466 7.49318 7.007 7.49318 7.01935 7.53024Z" fill="#F5F5F5"/>
<path d="M7.01935 9.02731L7.11476 9.31344L7.41638 9.31573C7.45544 9.31608 7.4716 9.36588 7.4402 9.38907L7.19758 9.56827L7.28859 9.85582C7.30041 9.89303 7.25798 9.92389 7.22619 9.90113L6.98083 9.72574L6.73547 9.90113C6.70368 9.92384 6.66135 9.89303 6.67306 9.85582L6.76408 9.56827L6.52145 9.38907C6.49006 9.36583 6.50622 9.31608 6.54528 9.31573L6.84689 9.31344L6.9423 9.02731C6.95466 8.99025 7.007 8.99025 7.01935 9.02731Z" fill="#F5F5F5"/>
<path d="M7.01935 10.5239L7.11476 10.81L7.41638 10.8123C7.45544 10.8126 7.4716 10.8624 7.4402 10.8856L7.19758 11.0648L7.28859 11.3524C7.30041 11.3896 7.25798 11.4204 7.22619 11.3977L6.98083 11.2223L6.73547 11.3977C6.70368 11.4204 6.66135 11.3896 6.67306 11.3524L6.76408 11.0648L6.52145 10.8856C6.49006 10.8624 6.50622 10.8126 6.54528 10.8123L6.84689 10.81L6.9423 10.5239C6.95466 10.4868 7.007 10.4868 7.01935 10.5239Z" fill="#F5F5F5"/>
<path d="M8.18146 5.29977L8.27687 5.5859L8.57849 5.58819C8.61755 5.58854 8.63371 5.63834 8.60231 5.66153L8.35969 5.84073L8.4507 6.12828C8.46252 6.16549 8.42009 6.19635 8.3883 6.17359L8.14294 5.9982L7.89758 6.17359C7.86579 6.1963 7.82346 6.16549 7.83517 6.12828L7.92619 5.84073L7.68356 5.66153C7.65217 5.63829 7.66833 5.58854 7.70739 5.58819L8.009 5.5859L8.10441 5.29977C8.11667 5.26271 8.16911 5.26271 8.18146 5.29977Z" fill="#F5F5F5"/>
<path d="M8.18146 6.79631L8.27687 7.08245L8.57849 7.08474C8.61755 7.08508 8.63371 7.13489 8.60231 7.15808L8.35969 7.33728L8.4507 7.62483C8.46252 7.66203 8.42009 7.69289 8.3883 7.67014L8.14294 7.49475L7.89758 7.67014C7.86579 7.69284 7.82346 7.66203 7.83517 7.62483L7.92619 7.33728L7.68356 7.15808C7.65217 7.13484 7.66833 7.08508 7.70739 7.08474L8.009 7.08245L8.10441 6.79631C8.11667 6.7593 8.16911 6.7593 8.18146 6.79631Z" fill="#F5F5F5"/>
<path d="M8.18146 8.29338L8.27687 8.57952L8.57849 8.58181C8.61755 8.58216 8.63371 8.63196 8.60231 8.65515L8.35969 8.83435L8.4507 9.1219C8.46252 9.15911 8.42009 9.18997 8.3883 9.16722L8.14294 8.99182L7.89758 9.16722C7.86579 9.18992 7.82346 9.15911 7.83517 9.1219L7.92619 8.83435L7.68356 8.65515C7.65217 8.63191 7.66833 8.58216 7.70739 8.58181L8.009 8.57952L8.10441 8.29338C8.11667 8.25637 8.16911 8.25637 8.18146 8.29338Z" fill="#F5F5F5"/>
<path d="M8.18146 9.79049L8.27687 10.0766L8.57849 10.0789C8.61755 10.0793 8.63371 10.1291 8.60231 10.1523L8.35969 10.3315L8.4507 10.619C8.46252 10.6562 8.42009 10.6871 8.3883 10.6643L8.14294 10.4889L7.89758 10.6643C7.86579 10.687 7.82346 10.6562 7.83517 10.619L7.92619 10.3315L7.68356 10.1523C7.65217 10.129 7.66833 10.0793 7.70739 10.0789L8.009 10.0766L8.10441 9.79049C8.11667 9.75343 8.16911 9.75343 8.18146 9.79049Z" fill="#F5F5F5"/>
<path d="M8.18146 11.2871L8.27687 11.5732L8.57849 11.5755C8.61755 11.5759 8.63371 11.6257 8.60231 11.6489L8.35969 11.8281L8.4507 12.1156C8.46252 12.1528 8.42009 12.1837 8.3883 12.1609L8.14294 11.9855L7.89758 12.1609C7.86579 12.1836 7.82346 12.1528 7.83517 12.1156L7.92619 11.8281L7.68356 11.6489C7.65217 11.6256 7.66833 11.5759 7.70739 11.5755L8.009 11.5732L8.10441 11.2871C8.11667 11.25 8.16911 11.25 8.18146 11.2871Z" fill="#F5F5F5"/>
<path d="M9.34357 6.03362L9.43898 6.31975L9.74059 6.32205C9.77965 6.32239 9.79582 6.37219 9.76442 6.39538L9.52179 6.57458L9.61281 6.86213C9.62462 6.89934 9.58219 6.9302 9.55041 6.90744L9.30505 6.73205L9.05968 6.90744C9.0279 6.93015 8.98556 6.89934 8.99728 6.86213L9.0883 6.57458L8.84567 6.39538C8.81428 6.37214 8.83044 6.32239 8.8695 6.32205L9.17111 6.31975L9.26652 6.03362C9.27883 5.99661 9.33127 5.99661 9.34357 6.03362Z" fill="#F5F5F5"/>
<path d="M9.34357 7.53024L9.43898 7.81637L9.74059 7.81866C9.77965 7.819 9.79582 7.86881 9.76442 7.892L9.52179 8.0712L9.61281 8.35875C9.62462 8.39595 9.58219 8.42681 9.55041 8.40406L9.30505 8.22867L9.05968 8.40406C9.0279 8.42676 8.98556 8.396 8.99728 8.35875L9.0883 8.0712L8.84567 7.892C8.81428 7.86876 8.83044 7.819 8.8695 7.81866L9.17111 7.81637L9.26652 7.53024C9.27883 7.49318 9.33127 7.49318 9.34357 7.53024Z" fill="#F5F5F5"/>
<path d="M9.34357 9.02731L9.43898 9.31344L9.74059 9.31573C9.77965 9.31608 9.79582 9.36588 9.76442 9.38907L9.52179 9.56827L9.61281 9.85582C9.62462 9.89303 9.58219 9.92389 9.55041 9.90113L9.30505 9.72574L9.05968 9.90113C9.0279 9.92384 8.98556 9.89303 8.99728 9.85582L9.0883 9.56827L8.84567 9.38907C8.81428 9.36583 8.83044 9.31608 8.8695 9.31573L9.17111 9.31344L9.26652 9.02731C9.27883 8.99025 9.33127 8.99025 9.34357 9.02731Z" fill="#F5F5F5"/>
<path d="M9.34357 10.5239L9.43898 10.81L9.74059 10.8123C9.77965 10.8126 9.79582 10.8624 9.76442 10.8856L9.52179 11.0648L9.61281 11.3524C9.62462 11.3896 9.58219 11.4204 9.55041 11.3977L9.30505 11.2223L9.05968 11.3977C9.0279 11.4204 8.98556 11.3896 8.99728 11.3524L9.0883 11.0648L8.84567 10.8856C8.81428 10.8624 8.83044 10.8126 8.8695 10.8123L9.17111 10.81L9.26652 10.5239C9.27883 10.4868 9.33127 10.4868 9.34357 10.5239Z" fill="#F5F5F5"/>
<path d="M10.5047 5.29977L10.6001 5.5859L10.9017 5.58819C10.9408 5.58854 10.957 5.63834 10.9256 5.66153L10.6829 5.84073L10.7739 6.12828C10.7858 6.16549 10.7433 6.19635 10.7115 6.17359L10.4662 5.9982L10.2208 6.17359C10.189 6.1963 10.1467 6.16549 10.1584 6.12828L10.2494 5.84073L10.0068 5.66153C9.97541 5.63829 9.99157 5.58854 10.0306 5.58819L10.3322 5.5859L10.4277 5.29977C10.44 5.26271 10.4923 5.26271 10.5047 5.29977Z" fill="#F5F5F5"/>
<path d="M10.5047 6.79631L10.6001 7.08245L10.9017 7.08474C10.9408 7.08508 10.957 7.13489 10.9256 7.15808L10.6829 7.33728L10.7739 7.62483C10.7858 7.66203 10.7433 7.69289 10.7115 7.67014L10.4662 7.49475L10.2208 7.67014C10.189 7.69284 10.1467 7.66203 10.1584 7.62483L10.2494 7.33728L10.0068 7.15808C9.97541 7.13484 9.99157 7.08508 10.0306 7.08474L10.3322 7.08245L10.4277 6.79631C10.44 6.7593 10.4923 6.7593 10.5047 6.79631Z" fill="#F5F5F5"/>
<path d="M10.5047 8.29338L10.6001 8.57952L10.9017 8.58181C10.9408 8.58216 10.957 8.63196 10.9256 8.65515L10.6829 8.83435L10.7739 9.1219C10.7858 9.15911 10.7433 9.18997 10.7115 9.16722L10.4662 8.99182L10.2208 9.16722C10.189 9.18992 10.1467 9.15911 10.1584 9.1219L10.2494 8.83435L10.0068 8.65515C9.97541 8.63191 9.99157 8.58216 10.0306 8.58181L10.3322 8.57952L10.4277 8.29338C10.44 8.25637 10.4923 8.25637 10.5047 8.29338Z" fill="#F5F5F5"/>
<path d="M10.5047 9.79049L10.6001 10.0766L10.9017 10.0789C10.9408 10.0793 10.957 10.1291 10.9256 10.1523L10.6829 10.3315L10.7739 10.619C10.7858 10.6562 10.7433 10.6871 10.7115 10.6643L10.4662 10.4889L10.2208 10.6643C10.189 10.687 10.1467 10.6562 10.1584 10.619L10.2494 10.3315L10.0068 10.1523C9.97541 10.129 9.99157 10.0793 10.0306 10.0789L10.3322 10.0766L10.4277 9.79049C10.44 9.75343 10.4923 9.75343 10.5047 9.79049Z" fill="#F5F5F5"/>
<path d="M10.5047 11.2871L10.6001 11.5732L10.9017 11.5755C10.9408 11.5759 10.957 11.6257 10.9256 11.6489L10.6829 11.8281L10.7739 12.1156C10.7858 12.1528 10.7433 12.1837 10.7115 12.1609L10.4662 11.9855L10.2208 12.1609C10.189 12.1836 10.1467 12.1528 10.1584 12.1156L10.2494 11.8281L10.0068 11.6489C9.97541 11.6256 9.99157 11.5759 10.0306 11.5755L10.3322 11.5732L10.4277 11.2871C10.44 11.25 10.4923 11.25 10.5047 11.2871Z" fill="#F5F5F5"/>
</svg>
